G04*
G04 #@! TF.GenerationSoftware,Altium Limited,CircuitMaker,2.2.1 (2.2.1.6)*
G04*
G04 Layer_Color=8150272*
%FSLAX25Y25*%
%MOIN*%
G70*
G04*
G04 #@! TF.SameCoordinates,623927E7-3B73-4545-9663-4BBB84DB28C7*
G04*
G04*
G04 #@! TF.FilePolarity,Negative*
G04*
G01*
G75*
%ADD68C,0.00800*%
%ADD69C,0.07099*%
%ADD70O,0.07887X0.10800*%
%ADD71R,0.07887X0.10800*%
%ADD72C,0.07493*%
%ADD73O,0.07800X0.10800*%
%ADD74C,0.14800*%
%ADD75R,0.07800X0.10800*%
%ADD76C,0.08300*%
%ADD77C,0.07887*%
%ADD78R,0.06800X0.08800*%
%ADD79O,0.06800X0.08800*%
%ADD80O,0.10800X0.07887*%
%ADD81R,0.10800X0.07887*%
%ADD82C,0.07800*%
%ADD83C,0.06706*%
%ADD84R,0.06706X0.06706*%
%ADD85C,0.03300*%
D68*
X1183513Y311739D02*
D03*
Y329061D02*
D03*
X630200Y275000D02*
D03*
X1168700D02*
D03*
Y575100D02*
D03*
X630200D02*
D03*
X1054900Y451394D02*
D03*
Y575394D02*
D03*
X757900Y451394D02*
D03*
Y575394D02*
D03*
D69*
X960000Y426400D02*
D03*
X970000D02*
D03*
X922600Y426100D02*
D03*
X932600D02*
D03*
X847546Y426700D02*
D03*
X857546D02*
D03*
X885800D02*
D03*
X895800D02*
D03*
D70*
X802754Y511000D02*
D03*
X812754D02*
D03*
X822754D02*
D03*
X832754D02*
D03*
X842754D02*
D03*
X852754D02*
D03*
X952754D02*
D03*
X882754D02*
D03*
X872754D02*
D03*
X862754D02*
D03*
X942754D02*
D03*
X932754D02*
D03*
X922754D02*
D03*
X912754D02*
D03*
X902754D02*
D03*
X962754D02*
D03*
X972754D02*
D03*
X982754D02*
D03*
X992754D02*
D03*
X1002754D02*
D03*
X892754D02*
D03*
X802700Y545300D02*
D03*
X812700D02*
D03*
X822700D02*
D03*
X832700D02*
D03*
X842700D02*
D03*
X852700D02*
D03*
X952700D02*
D03*
X892700D02*
D03*
X882700D02*
D03*
X872700D02*
D03*
X862700D02*
D03*
X942700D02*
D03*
X932700D02*
D03*
X922700D02*
D03*
X912700D02*
D03*
X902700D02*
D03*
X962700D02*
D03*
X972700D02*
D03*
X982700D02*
D03*
X992700D02*
D03*
X1002700D02*
D03*
D71*
X1012754Y511000D02*
D03*
X1012700Y545300D02*
D03*
D72*
X776275Y555260D02*
D03*
X786275D02*
D03*
X786225Y564240D02*
D03*
X776225D02*
D03*
X953775Y577260D02*
D03*
X963775D02*
D03*
X963725Y568240D02*
D03*
X953725D02*
D03*
D73*
X919043Y396643D02*
D03*
X899357D02*
D03*
X909200Y339557D02*
D03*
X919043D02*
D03*
D74*
X933200Y368100D02*
D03*
X885200D02*
D03*
D75*
X899357Y339557D02*
D03*
D76*
X687629Y460229D02*
D03*
X697630Y440229D02*
D03*
X707629Y460229D02*
D03*
X687399Y503800D02*
D03*
X697400Y483800D02*
D03*
X707399Y503800D02*
D03*
X929400Y577394D02*
D03*
X919400D02*
D03*
X909400D02*
D03*
X899400D02*
D03*
X889400D02*
D03*
X879400D02*
D03*
X869400D02*
D03*
X859400D02*
D03*
X849400D02*
D03*
X839400D02*
D03*
X829400D02*
D03*
X819400D02*
D03*
X809400D02*
D03*
X799400D02*
D03*
X789400D02*
D03*
X779400D02*
D03*
D77*
X626206Y425252D02*
D03*
Y435252D02*
D03*
X616206D02*
D03*
Y425252D02*
D03*
X636206Y435252D02*
D03*
X636206Y425252D02*
D03*
D78*
X618163Y470500D02*
D03*
X1003737Y313700D02*
D03*
D79*
X626037Y470500D02*
D03*
X1011611Y313700D02*
D03*
D80*
X757800Y513400D02*
D03*
Y523400D02*
D03*
Y533400D02*
D03*
D81*
Y543400D02*
D03*
D82*
X1134300Y491800D02*
D03*
X1144300D02*
D03*
X1154300D02*
D03*
X1164300D02*
D03*
Y501800D02*
D03*
X1154300D02*
D03*
X1144300D02*
D03*
X1134300D02*
D03*
D83*
X1193891Y368743D02*
D03*
Y358900D02*
D03*
Y349057D02*
D03*
X1170269Y368743D02*
D03*
Y358900D02*
D03*
D84*
Y349057D02*
D03*
D85*
X993000Y299800D02*
D03*
X1050700Y304600D02*
D03*
X1166000Y320400D02*
D03*
X1161600Y317400D02*
D03*
X798000Y306500D02*
D03*
X847500Y383500D02*
D03*
X855000Y390000D02*
D03*
X917000Y499000D02*
D03*
X908000D02*
D03*
X897500D02*
D03*
X866000Y400500D02*
D03*
X773000Y452500D02*
D03*
X769000Y396500D02*
D03*
X782948Y408130D02*
D03*
X796000Y269000D02*
D03*
X789000D02*
D03*
X782000D02*
D03*
X835000Y271000D02*
D03*
Y278000D02*
D03*
X891500Y288000D02*
D03*
X898500D02*
D03*
X876500Y269500D02*
D03*
X905000Y268500D02*
D03*
X819000Y312500D02*
D03*
X809500Y304500D02*
D03*
X819000Y301500D02*
D03*
X825500Y288500D02*
D03*
X879500Y282500D02*
D03*
X880000Y290000D02*
D03*
X741000Y328250D02*
D03*
X737407Y332275D02*
D03*
X1000000Y264000D02*
D03*
X663000Y575000D02*
D03*
X1195000Y415000D02*
D03*
Y404000D02*
D03*
Y393000D02*
D03*
X1085000Y417000D02*
D03*
Y406000D02*
D03*
Y395000D02*
D03*
Y428000D02*
D03*
Y439000D02*
D03*
Y450000D02*
D03*
Y461000D02*
D03*
Y472000D02*
D03*
X1195000Y426000D02*
D03*
Y437000D02*
D03*
Y448000D02*
D03*
Y459000D02*
D03*
Y470000D02*
D03*
Y481000D02*
D03*
Y492000D02*
D03*
Y503000D02*
D03*
Y514000D02*
D03*
X1044000Y264000D02*
D03*
X1033000D02*
D03*
X1055000D02*
D03*
X1066000D02*
D03*
X1077000D02*
D03*
X1088000D02*
D03*
X1099000D02*
D03*
X1110000D02*
D03*
X1121000D02*
D03*
X1132000D02*
D03*
X1143000D02*
D03*
X989000D02*
D03*
X1011000D02*
D03*
X1022000D02*
D03*
X1139000Y525000D02*
D03*
X1155000D02*
D03*
X1139000Y537000D02*
D03*
X1155000D02*
D03*
X991500Y386000D02*
D03*
X1001500D02*
D03*
X1011500D02*
D03*
Y396000D02*
D03*
X1001500D02*
D03*
X991500D02*
D03*
X663000Y567000D02*
D03*
X653000Y575000D02*
D03*
Y567000D02*
D03*
X820000Y438000D02*
D03*
X809000D02*
D03*
X1165000Y435000D02*
D03*
X1149000D02*
D03*
X1166000Y399000D02*
D03*
X1087000Y341000D02*
D03*
Y351000D02*
D03*
X1136000Y340000D02*
D03*
X1103000D02*
D03*
X1120000D02*
D03*
X1034000Y296000D02*
D03*
X1077000Y317000D02*
D03*
X928000Y295000D02*
D03*
X921000D02*
D03*
X928000Y301000D02*
D03*
X921000D02*
D03*
X993000Y307000D02*
D03*
X982000D02*
D03*
X1001000Y284000D02*
D03*
X764000Y379000D02*
D03*
X752000D02*
D03*
X776000D02*
D03*
X705000Y347000D02*
D03*
X713000Y339000D02*
D03*
Y347000D02*
D03*
Y355000D02*
D03*
X744000Y436000D02*
D03*
X727500Y398000D02*
D03*
X738000Y338000D02*
D03*
X844500Y394500D02*
D03*
X757000Y305500D02*
D03*
X648000Y379000D02*
D03*
X715500Y384000D02*
D03*
Y370500D02*
D03*
X720000Y376500D02*
D03*
X704000Y386000D02*
D03*
X699500Y373000D02*
D03*
X710500Y390000D02*
D03*
X748500Y265500D02*
D03*
X732500Y320000D02*
D03*
X737500Y311500D02*
D03*
X736000Y263500D02*
D03*
X706000Y309000D02*
D03*
Y318500D02*
D03*
X727000Y306000D02*
D03*
X715518Y420518D02*
D03*
X662500Y425500D02*
D03*
X708000Y406500D02*
D03*
X623000Y382000D02*
D03*
X641000Y387500D02*
D03*
X699715Y295701D02*
D03*
X642000Y296500D02*
D03*
X665000Y399500D02*
D03*
X728000Y376500D02*
D03*
X670500Y417000D02*
D03*
X713000Y519000D02*
D03*
X713500Y289500D02*
D03*
X777779Y464588D02*
D03*
X800500Y345000D02*
D03*
X781000Y355500D02*
D03*
X774000Y316000D02*
D03*
X713500Y303500D02*
D03*
X858500Y368000D02*
D03*
X799500Y471000D02*
D03*
X662500Y349000D02*
D03*
X850500Y342500D02*
D03*
X827000Y374500D02*
D03*
X785500Y424000D02*
D03*
X837000Y389000D02*
D03*
X825000Y428000D02*
D03*
X686500Y335500D02*
D03*
X672000Y363000D02*
D03*
X615500Y315000D02*
D03*
X683500Y328500D02*
D03*
X666000Y332000D02*
D03*
X651000Y288000D02*
D03*
X668000Y317500D02*
D03*
X692000Y323500D02*
D03*
X662000Y292500D02*
D03*
X743000Y486500D02*
D03*
X738000Y376500D02*
D03*
X677500Y373500D02*
D03*
X1067500Y527000D02*
D03*
X732000Y547000D02*
D03*
X625000Y482000D02*
D03*
X627500Y544500D02*
D03*
X967500Y287000D02*
D03*
M02*
