G04*
G04 #@! TF.GenerationSoftware,Altium Limited,CircuitMaker,2.2.1 (2.2.1.6)*
G04*
G04 Layer_Color=16740166*
%FSLAX25Y25*%
%MOIN*%
G70*
G04*
G04 #@! TF.SameCoordinates,623927E7-3B73-4545-9663-4BBB84DB28C7*
G04*
G04*
G04 #@! TF.FilePolarity,Positive*
G04*
G01*
G75*
%ADD106C,0.00100*%
%ADD107C,0.00100*%
D106*
X1200050Y550000D02*
G03*
X1200050Y550001I-50J0D01*
G01*
D02*
G03*
X1149945Y600050I-50050J-1D01*
G01*
X1200050Y550000D02*
G03*
X1200050Y550001I-50050J0D01*
G01*
X1200050Y300031D02*
G03*
X1200050Y300032I-50050J-31D01*
G01*
X1200050Y300000D02*
G03*
X1200050Y300031I-50050J0D01*
G01*
D02*
G03*
X1200050Y300032I-50J1D01*
G01*
X1150000Y249950D02*
G03*
X1200050Y300000I0J50050D01*
G01*
X650000Y600050D02*
G03*
X649999Y600050I0J-50D01*
G01*
D02*
G03*
X599950Y550000I1J-50050D01*
G01*
X650000Y600050D02*
G03*
X649999Y600050I0J-50050D01*
G01*
X599950Y300000D02*
G03*
X650000Y249950I50050J0D01*
G01*
X1200050Y550000D02*
X1200050Y300032D01*
X1150000Y249950D02*
X1150000D01*
X650000Y249950D02*
X1150000Y249950D01*
X650000Y600050D02*
X1149945Y600050D01*
X599950Y550000D02*
X599950Y300000D01*
Y300000D02*
Y300000D01*
Y300000D02*
Y300000D01*
D107*
X650000Y600050D02*
D03*
X650000Y249950D02*
D03*
X599950Y300000D02*
D03*
D03*
M02*
