G04*
G04 #@! TF.GenerationSoftware,Altium Limited,CircuitMaker,2.2.1 (2.2.1.6)*
G04*
G04 Layer_Color=2752767*
%FSLAX25Y25*%
%MOIN*%
G70*
G04*
G04 #@! TF.SameCoordinates,623927E7-3B73-4545-9663-4BBB84DB28C7*
G04*
G04*
G04 #@! TF.FilePolarity,Positive*
G04*
G01*
G75*
%ADD15C,0.00394*%
%ADD108C,0.00200*%
%ADD109C,0.00267*%
%ADD110C,0.00133*%
D15*
X1186013Y311739D02*
G03*
X1186013Y311739I-2500J0D01*
G01*
Y329061D02*
G03*
X1186013Y329061I-2500J0D01*
G01*
D108*
X1182713Y310939D02*
Y312539D01*
X1184313D01*
Y310939D01*
X1182713D01*
Y328261D02*
Y329861D01*
X1184313D01*
Y328261D01*
X1182713D01*
X960000Y425600D02*
X959200Y427200D01*
X960800D01*
X960000Y425600D01*
X970000D02*
X969200Y427200D01*
X970800D01*
X970000Y425600D01*
X922600Y425300D02*
X921800Y426900D01*
X923400D01*
X922600Y425300D01*
X932600D02*
X931800Y426900D01*
X933400D01*
X932600Y425300D01*
X847546Y425900D02*
X846746Y427500D01*
X848346D01*
X847546Y425900D01*
X857546D02*
X856746Y427500D01*
X858346D01*
X857546Y425900D01*
X885800D02*
X885000Y427500D01*
X886600D01*
X885800Y425900D01*
X895800D02*
X895000Y427500D01*
X896600D01*
X895800Y425900D01*
X802754Y510200D02*
X803154Y510600D01*
X803554D01*
X803154Y511000D01*
X803554Y511400D01*
X803154D01*
X802754Y511800D01*
X802354Y511400D01*
X801954D01*
X802354Y511000D01*
X801954Y510600D01*
X802354D01*
X802754Y510200D01*
X812754D02*
X813154Y510600D01*
X813554D01*
X813154Y511000D01*
X813554Y511400D01*
X813154D01*
X812754Y511800D01*
X812354Y511400D01*
X811954D01*
X812354Y511000D01*
X811954Y510600D01*
X812354D01*
X812754Y510200D01*
X822754D02*
X823154Y510600D01*
X823554D01*
X823154Y511000D01*
X823554Y511400D01*
X823154D01*
X822754Y511800D01*
X822354Y511400D01*
X821954D01*
X822354Y511000D01*
X821954Y510600D01*
X822354D01*
X822754Y510200D01*
X832754D02*
X833154Y510600D01*
X833554D01*
X833154Y511000D01*
X833554Y511400D01*
X833154D01*
X832754Y511800D01*
X832354Y511400D01*
X831954D01*
X832354Y511000D01*
X831954Y510600D01*
X832354D01*
X832754Y510200D01*
X842754D02*
X843154Y510600D01*
X843554D01*
X843154Y511000D01*
X843554Y511400D01*
X843154D01*
X842754Y511800D01*
X842354Y511400D01*
X841954D01*
X842354Y511000D01*
X841954Y510600D01*
X842354D01*
X842754Y510200D01*
X852754D02*
X853154Y510600D01*
X853554D01*
X853154Y511000D01*
X853554Y511400D01*
X853154D01*
X852754Y511800D01*
X852354Y511400D01*
X851954D01*
X852354Y511000D01*
X851954Y510600D01*
X852354D01*
X852754Y510200D01*
X952754D02*
X953154Y510600D01*
X953554D01*
X953154Y511000D01*
X953554Y511400D01*
X953154D01*
X952754Y511800D01*
X952354Y511400D01*
X951954D01*
X952354Y511000D01*
X951954Y510600D01*
X952354D01*
X952754Y510200D01*
X882754D02*
X883154Y510600D01*
X883554D01*
X883154Y511000D01*
X883554Y511400D01*
X883154D01*
X882754Y511800D01*
X882354Y511400D01*
X881954D01*
X882354Y511000D01*
X881954Y510600D01*
X882354D01*
X882754Y510200D01*
X872754D02*
X873154Y510600D01*
X873554D01*
X873154Y511000D01*
X873554Y511400D01*
X873154D01*
X872754Y511800D01*
X872354Y511400D01*
X871954D01*
X872354Y511000D01*
X871954Y510600D01*
X872354D01*
X872754Y510200D01*
X862754D02*
X863154Y510600D01*
X863554D01*
X863154Y511000D01*
X863554Y511400D01*
X863154D01*
X862754Y511800D01*
X862354Y511400D01*
X861954D01*
X862354Y511000D01*
X861954Y510600D01*
X862354D01*
X862754Y510200D01*
X942754D02*
X943154Y510600D01*
X943554D01*
X943154Y511000D01*
X943554Y511400D01*
X943154D01*
X942754Y511800D01*
X942354Y511400D01*
X941954D01*
X942354Y511000D01*
X941954Y510600D01*
X942354D01*
X942754Y510200D01*
X932754D02*
X933154Y510600D01*
X933554D01*
X933154Y511000D01*
X933554Y511400D01*
X933154D01*
X932754Y511800D01*
X932354Y511400D01*
X931954D01*
X932354Y511000D01*
X931954Y510600D01*
X932354D01*
X932754Y510200D01*
X922754D02*
X923154Y510600D01*
X923554D01*
X923154Y511000D01*
X923554Y511400D01*
X923154D01*
X922754Y511800D01*
X922354Y511400D01*
X921954D01*
X922354Y511000D01*
X921954Y510600D01*
X922354D01*
X922754Y510200D01*
X912754D02*
X913154Y510600D01*
X913554D01*
X913154Y511000D01*
X913554Y511400D01*
X913154D01*
X912754Y511800D01*
X912354Y511400D01*
X911954D01*
X912354Y511000D01*
X911954Y510600D01*
X912354D01*
X912754Y510200D01*
X902754D02*
X903154Y510600D01*
X903554D01*
X903154Y511000D01*
X903554Y511400D01*
X903154D01*
X902754Y511800D01*
X902354Y511400D01*
X901954D01*
X902354Y511000D01*
X901954Y510600D01*
X902354D01*
X902754Y510200D01*
X962754D02*
X963154Y510600D01*
X963554D01*
X963154Y511000D01*
X963554Y511400D01*
X963154D01*
X962754Y511800D01*
X962354Y511400D01*
X961954D01*
X962354Y511000D01*
X961954Y510600D01*
X962354D01*
X962754Y510200D01*
X972754D02*
X973154Y510600D01*
X973554D01*
X973154Y511000D01*
X973554Y511400D01*
X973154D01*
X972754Y511800D01*
X972354Y511400D01*
X971954D01*
X972354Y511000D01*
X971954Y510600D01*
X972354D01*
X972754Y510200D01*
X982754D02*
X983154Y510600D01*
X983554D01*
X983154Y511000D01*
X983554Y511400D01*
X983154D01*
X982754Y511800D01*
X982354Y511400D01*
X981954D01*
X982354Y511000D01*
X981954Y510600D01*
X982354D01*
X982754Y510200D01*
X992754D02*
X993154Y510600D01*
X993554D01*
X993154Y511000D01*
X993554Y511400D01*
X993154D01*
X992754Y511800D01*
X992354Y511400D01*
X991954D01*
X992354Y511000D01*
X991954Y510600D01*
X992354D01*
X992754Y510200D01*
X1002754D02*
X1003154Y510600D01*
X1003554D01*
X1003154Y511000D01*
X1003554Y511400D01*
X1003154D01*
X1002754Y511800D01*
X1002354Y511400D01*
X1001954D01*
X1002354Y511000D01*
X1001954Y510600D01*
X1002354D01*
X1002754Y510200D01*
X1012754D02*
X1013154Y510600D01*
X1013554D01*
X1013154Y511000D01*
X1013554Y511400D01*
X1013154D01*
X1012754Y511800D01*
X1012354Y511400D01*
X1011954D01*
X1012354Y511000D01*
X1011954Y510600D01*
X1012354D01*
X1012754Y510200D01*
X892754D02*
X893154Y510600D01*
X893554D01*
X893154Y511000D01*
X893554Y511400D01*
X893154D01*
X892754Y511800D01*
X892354Y511400D01*
X891954D01*
X892354Y511000D01*
X891954Y510600D01*
X892354D01*
X892754Y510200D01*
X802700Y544500D02*
X803100Y544900D01*
X803500D01*
X803100Y545300D01*
X803500Y545700D01*
X803100D01*
X802700Y546100D01*
X802300Y545700D01*
X801900D01*
X802300Y545300D01*
X801900Y544900D01*
X802300D01*
X802700Y544500D01*
X812700D02*
X813100Y544900D01*
X813500D01*
X813100Y545300D01*
X813500Y545700D01*
X813100D01*
X812700Y546100D01*
X812300Y545700D01*
X811900D01*
X812300Y545300D01*
X811900Y544900D01*
X812300D01*
X812700Y544500D01*
X822700D02*
X823100Y544900D01*
X823500D01*
X823100Y545300D01*
X823500Y545700D01*
X823100D01*
X822700Y546100D01*
X822300Y545700D01*
X821900D01*
X822300Y545300D01*
X821900Y544900D01*
X822300D01*
X822700Y544500D01*
X832700D02*
X833100Y544900D01*
X833500D01*
X833100Y545300D01*
X833500Y545700D01*
X833100D01*
X832700Y546100D01*
X832300Y545700D01*
X831900D01*
X832300Y545300D01*
X831900Y544900D01*
X832300D01*
X832700Y544500D01*
X842700D02*
X843100Y544900D01*
X843500D01*
X843100Y545300D01*
X843500Y545700D01*
X843100D01*
X842700Y546100D01*
X842300Y545700D01*
X841900D01*
X842300Y545300D01*
X841900Y544900D01*
X842300D01*
X842700Y544500D01*
X852700D02*
X853100Y544900D01*
X853500D01*
X853100Y545300D01*
X853500Y545700D01*
X853100D01*
X852700Y546100D01*
X852300Y545700D01*
X851900D01*
X852300Y545300D01*
X851900Y544900D01*
X852300D01*
X852700Y544500D01*
X952700D02*
X953100Y544900D01*
X953500D01*
X953100Y545300D01*
X953500Y545700D01*
X953100D01*
X952700Y546100D01*
X952300Y545700D01*
X951900D01*
X952300Y545300D01*
X951900Y544900D01*
X952300D01*
X952700Y544500D01*
X892700D02*
X893100Y544900D01*
X893500D01*
X893100Y545300D01*
X893500Y545700D01*
X893100D01*
X892700Y546100D01*
X892300Y545700D01*
X891900D01*
X892300Y545300D01*
X891900Y544900D01*
X892300D01*
X892700Y544500D01*
X882700D02*
X883100Y544900D01*
X883500D01*
X883100Y545300D01*
X883500Y545700D01*
X883100D01*
X882700Y546100D01*
X882300Y545700D01*
X881900D01*
X882300Y545300D01*
X881900Y544900D01*
X882300D01*
X882700Y544500D01*
X872700D02*
X873100Y544900D01*
X873500D01*
X873100Y545300D01*
X873500Y545700D01*
X873100D01*
X872700Y546100D01*
X872300Y545700D01*
X871900D01*
X872300Y545300D01*
X871900Y544900D01*
X872300D01*
X872700Y544500D01*
X862700D02*
X863100Y544900D01*
X863500D01*
X863100Y545300D01*
X863500Y545700D01*
X863100D01*
X862700Y546100D01*
X862300Y545700D01*
X861900D01*
X862300Y545300D01*
X861900Y544900D01*
X862300D01*
X862700Y544500D01*
X942700D02*
X943100Y544900D01*
X943500D01*
X943100Y545300D01*
X943500Y545700D01*
X943100D01*
X942700Y546100D01*
X942300Y545700D01*
X941900D01*
X942300Y545300D01*
X941900Y544900D01*
X942300D01*
X942700Y544500D01*
X932700D02*
X933100Y544900D01*
X933500D01*
X933100Y545300D01*
X933500Y545700D01*
X933100D01*
X932700Y546100D01*
X932300Y545700D01*
X931900D01*
X932300Y545300D01*
X931900Y544900D01*
X932300D01*
X932700Y544500D01*
X922700D02*
X923100Y544900D01*
X923500D01*
X923100Y545300D01*
X923500Y545700D01*
X923100D01*
X922700Y546100D01*
X922300Y545700D01*
X921900D01*
X922300Y545300D01*
X921900Y544900D01*
X922300D01*
X922700Y544500D01*
X912700D02*
X913100Y544900D01*
X913500D01*
X913100Y545300D01*
X913500Y545700D01*
X913100D01*
X912700Y546100D01*
X912300Y545700D01*
X911900D01*
X912300Y545300D01*
X911900Y544900D01*
X912300D01*
X912700Y544500D01*
X902700D02*
X903100Y544900D01*
X903500D01*
X903100Y545300D01*
X903500Y545700D01*
X903100D01*
X902700Y546100D01*
X902300Y545700D01*
X901900D01*
X902300Y545300D01*
X901900Y544900D01*
X902300D01*
X902700Y544500D01*
X962700D02*
X963100Y544900D01*
X963500D01*
X963100Y545300D01*
X963500Y545700D01*
X963100D01*
X962700Y546100D01*
X962300Y545700D01*
X961900D01*
X962300Y545300D01*
X961900Y544900D01*
X962300D01*
X962700Y544500D01*
X972700D02*
X973100Y544900D01*
X973500D01*
X973100Y545300D01*
X973500Y545700D01*
X973100D01*
X972700Y546100D01*
X972300Y545700D01*
X971900D01*
X972300Y545300D01*
X971900Y544900D01*
X972300D01*
X972700Y544500D01*
X982700D02*
X983100Y544900D01*
X983500D01*
X983100Y545300D01*
X983500Y545700D01*
X983100D01*
X982700Y546100D01*
X982300Y545700D01*
X981900D01*
X982300Y545300D01*
X981900Y544900D01*
X982300D01*
X982700Y544500D01*
X992700D02*
X993100Y544900D01*
X993500D01*
X993100Y545300D01*
X993500Y545700D01*
X993100D01*
X992700Y546100D01*
X992300Y545700D01*
X991900D01*
X992300Y545300D01*
X991900Y544900D01*
X992300D01*
X992700Y544500D01*
X1002700D02*
X1003100Y544900D01*
X1003500D01*
X1003100Y545300D01*
X1003500Y545700D01*
X1003100D01*
X1002700Y546100D01*
X1002300Y545700D01*
X1001900D01*
X1002300Y545300D01*
X1001900Y544900D01*
X1002300D01*
X1002700Y544500D01*
X1012700D02*
X1013100Y544900D01*
X1013500D01*
X1013100Y545300D01*
X1013500Y545700D01*
X1013100D01*
X1012700Y546100D01*
X1012300Y545700D01*
X1011900D01*
X1012300Y545300D01*
X1011900Y544900D01*
X1012300D01*
X1012700Y544500D01*
X775475Y554460D02*
X775875Y555260D01*
X775475Y556060D01*
X776275Y555660D01*
X777075Y556060D01*
X776675Y555260D01*
X777075Y554460D01*
X776275Y554860D01*
X775475Y554460D01*
X785475D02*
X785875Y555260D01*
X785475Y556060D01*
X786275Y555660D01*
X787075Y556060D01*
X786675Y555260D01*
X787075Y554460D01*
X786275Y554860D01*
X785475Y554460D01*
X785425Y563440D02*
X785825Y564240D01*
X785425Y565040D01*
X786225Y564640D01*
X787025Y565040D01*
X786625Y564240D01*
X787025Y563440D01*
X786225Y563840D01*
X785425Y563440D01*
X775425D02*
X775825Y564240D01*
X775425Y565040D01*
X776225Y564640D01*
X777025Y565040D01*
X776625Y564240D01*
X777025Y563440D01*
X776225Y563840D01*
X775425Y563440D01*
X952975Y576460D02*
X953375Y577260D01*
X952975Y578060D01*
X953775Y577660D01*
X954575Y578060D01*
X954175Y577260D01*
X954575Y576460D01*
X953775Y576860D01*
X952975Y576460D01*
X962975D02*
X963375Y577260D01*
X962975Y578060D01*
X963775Y577660D01*
X964575Y578060D01*
X964175Y577260D01*
X964575Y576460D01*
X963775Y576860D01*
X962975Y576460D01*
X962925Y567440D02*
X963325Y568240D01*
X962925Y569040D01*
X963725Y568640D01*
X964525Y569040D01*
X964125Y568240D01*
X964525Y567440D01*
X963725Y567840D01*
X962925Y567440D01*
X952925D02*
X953325Y568240D01*
X952925Y569040D01*
X953725Y568640D01*
X954525Y569040D01*
X954125Y568240D01*
X954525Y567440D01*
X953725Y567840D01*
X952925Y567440D01*
X918643Y396243D02*
Y395843D01*
X919443D01*
Y396243D01*
X919843D01*
Y397043D01*
X919443D01*
Y397443D01*
X918643D01*
Y397043D01*
X918243D01*
Y396243D01*
X918643D01*
X898957D02*
Y395843D01*
X899757D01*
Y396243D01*
X900157D01*
Y397043D01*
X899757D01*
Y397443D01*
X898957D01*
Y397043D01*
X898557D01*
Y396243D01*
X898957D01*
X932400Y367300D02*
X932800D01*
X933200Y367700D01*
X933600Y367300D01*
X934000D01*
Y367700D01*
X933600Y368100D01*
X934000Y368500D01*
Y368900D01*
X933600D01*
X933200Y368500D01*
X932800Y368900D01*
X932400D01*
Y368500D01*
X932800Y368100D01*
X932400Y367700D01*
Y367300D01*
X884400D02*
X884800D01*
X885200Y367700D01*
X885600Y367300D01*
X886000D01*
Y367700D01*
X885600Y368100D01*
X886000Y368500D01*
Y368900D01*
X885600D01*
X885200Y368500D01*
X884800Y368900D01*
X884400D01*
Y368500D01*
X884800Y368100D01*
X884400Y367700D01*
Y367300D01*
X898957Y339157D02*
Y338757D01*
X899757D01*
Y339157D01*
X900157D01*
Y339957D01*
X899757D01*
Y340357D01*
X898957D01*
Y339957D01*
X898557D01*
Y339157D01*
X898957D01*
X908800D02*
Y338757D01*
X909600D01*
Y339157D01*
X910000D01*
Y339957D01*
X909600D01*
Y340357D01*
X908800D01*
Y339957D01*
X908400D01*
Y339157D01*
X908800D01*
X918643D02*
Y338757D01*
X919443D01*
Y339157D01*
X919843D01*
Y339957D01*
X919443D01*
Y340357D01*
X918643D01*
Y339957D01*
X918243D01*
Y339157D01*
X918643D01*
X686829Y460229D02*
X687629Y461029D01*
X688429Y460229D01*
X687629Y459429D01*
X686829Y460229D01*
X696830Y440229D02*
X697630Y441029D01*
X698430Y440229D01*
X697630Y439429D01*
X696830Y440229D01*
X706829Y460229D02*
X707629Y461029D01*
X708429Y460229D01*
X707629Y459429D01*
X706829Y460229D01*
X626206Y424452D02*
X625406Y426052D01*
X627006D01*
X626206Y424452D01*
Y434452D02*
X625406Y436052D01*
X627006D01*
X626206Y434452D01*
X616206D02*
X615406Y436052D01*
X617006D01*
X616206Y434452D01*
Y424452D02*
X615406Y426052D01*
X617006D01*
X616206Y424452D01*
X636206Y434452D02*
X635406Y436052D01*
X637006D01*
X636206Y434452D01*
X636206Y424452D02*
X635406Y426052D01*
X637006D01*
X636206Y424452D01*
X617363Y469700D02*
Y471300D01*
X618963D01*
Y469700D01*
X617363D01*
X617763Y470100D02*
Y470900D01*
X618563D01*
Y470100D01*
X617763D01*
X625237Y469700D02*
Y471300D01*
X626837D01*
Y469700D01*
X625237D01*
X625637Y470100D02*
Y470900D01*
X626437D01*
Y470100D01*
X625637D01*
X1010811Y312900D02*
Y314500D01*
X1012411D01*
Y312900D01*
X1010811D01*
X1011211Y313300D02*
Y314100D01*
X1012011D01*
Y313300D01*
X1011211D01*
X1002937Y312900D02*
Y314500D01*
X1004537D01*
Y312900D01*
X1002937D01*
X1003337Y313300D02*
Y314100D01*
X1004137D01*
Y313300D01*
X1003337D01*
X757800Y512600D02*
X758200Y513000D01*
X758600D01*
X758200Y513400D01*
X758600Y513800D01*
X758200D01*
X757800Y514200D01*
X757400Y513800D01*
X757000D01*
X757400Y513400D01*
X757000Y513000D01*
X757400D01*
X757800Y512600D01*
Y522600D02*
X758200Y523000D01*
X758600D01*
X758200Y523400D01*
X758600Y523800D01*
X758200D01*
X757800Y524200D01*
X757400Y523800D01*
X757000D01*
X757400Y523400D01*
X757000Y523000D01*
X757400D01*
X757800Y522600D01*
Y532600D02*
X758200Y533000D01*
X758600D01*
X758200Y533400D01*
X758600Y533800D01*
X758200D01*
X757800Y534200D01*
X757400Y533800D01*
X757000D01*
X757400Y533400D01*
X757000Y533000D01*
X757400D01*
X757800Y532600D01*
Y542600D02*
X758200Y543000D01*
X758600D01*
X758200Y543400D01*
X758600Y543800D01*
X758200D01*
X757800Y544200D01*
X757400Y543800D01*
X757000D01*
X757400Y543400D01*
X757000Y543000D01*
X757400D01*
X757800Y542600D01*
X1193891Y367943D02*
X1193091Y369543D01*
X1194691D01*
X1193891Y367943D01*
Y358100D02*
X1193091Y359700D01*
X1194691D01*
X1193891Y358100D01*
Y348257D02*
X1193091Y349857D01*
X1194691D01*
X1193891Y348257D01*
X1170269Y367943D02*
X1169469Y369543D01*
X1171069D01*
X1170269Y367943D01*
Y358100D02*
X1169469Y359700D01*
X1171069D01*
X1170269Y358100D01*
Y348257D02*
X1169469Y349857D01*
X1171069D01*
X1170269Y348257D01*
X686599Y503800D02*
X687399Y504600D01*
X688199Y503800D01*
X687399Y503000D01*
X686599Y503800D01*
X696600Y483800D02*
X697400Y484600D01*
X698200Y483800D01*
X697400Y483000D01*
X696600Y483800D01*
X706599Y503800D02*
X707399Y504600D01*
X708199Y503800D01*
X707399Y503000D01*
X706599Y503800D01*
X1054900Y450594D02*
X1054100Y452194D01*
X1055700D01*
X1054900Y450594D01*
Y450994D02*
X1054500Y451794D01*
X1055300D01*
X1054900Y450994D01*
Y574594D02*
X1054100Y576194D01*
X1055700D01*
X1054900Y574594D01*
Y574994D02*
X1054500Y575794D01*
X1055300D01*
X1054900Y574994D01*
X757900Y450594D02*
X757100Y452194D01*
X758700D01*
X757900Y450594D01*
Y450994D02*
X757500Y451794D01*
X758300D01*
X757900Y450994D01*
Y574594D02*
X757100Y576194D01*
X758700D01*
X757900Y574594D01*
Y574994D02*
X757500Y575794D01*
X758300D01*
X757900Y574994D01*
X928600Y576594D02*
Y578194D01*
X930200D01*
Y576594D01*
X928600D01*
X929000Y576994D02*
Y577794D01*
X929800D01*
Y576994D01*
X929000D01*
X918600Y576594D02*
Y578194D01*
X920200D01*
Y576594D01*
X918600D01*
X919000Y576994D02*
Y577794D01*
X919800D01*
Y576994D01*
X919000D01*
X908600Y576594D02*
Y578194D01*
X910200D01*
Y576594D01*
X908600D01*
X909000Y576994D02*
Y577794D01*
X909800D01*
Y576994D01*
X909000D01*
X898600Y576594D02*
Y578194D01*
X900200D01*
Y576594D01*
X898600D01*
X899000Y576994D02*
Y577794D01*
X899800D01*
Y576994D01*
X899000D01*
X888600Y576594D02*
Y578194D01*
X890200D01*
Y576594D01*
X888600D01*
X889000Y576994D02*
Y577794D01*
X889800D01*
Y576994D01*
X889000D01*
X878600Y576594D02*
Y578194D01*
X880200D01*
Y576594D01*
X878600D01*
X879000Y576994D02*
Y577794D01*
X879800D01*
Y576994D01*
X879000D01*
X868600Y576594D02*
Y578194D01*
X870200D01*
Y576594D01*
X868600D01*
X869000Y576994D02*
Y577794D01*
X869800D01*
Y576994D01*
X869000D01*
X858600Y576594D02*
Y578194D01*
X860200D01*
Y576594D01*
X858600D01*
X859000Y576994D02*
Y577794D01*
X859800D01*
Y576994D01*
X859000D01*
X848600Y576594D02*
Y578194D01*
X850200D01*
Y576594D01*
X848600D01*
X849000Y576994D02*
Y577794D01*
X849800D01*
Y576994D01*
X849000D01*
X838600Y576594D02*
Y578194D01*
X840200D01*
Y576594D01*
X838600D01*
X839000Y576994D02*
Y577794D01*
X839800D01*
Y576994D01*
X839000D01*
X828600Y576594D02*
Y578194D01*
X830200D01*
Y576594D01*
X828600D01*
X829000Y576994D02*
Y577794D01*
X829800D01*
Y576994D01*
X829000D01*
X818600Y576594D02*
Y578194D01*
X820200D01*
Y576594D01*
X818600D01*
X819000Y576994D02*
Y577794D01*
X819800D01*
Y576994D01*
X819000D01*
X808600Y576594D02*
Y578194D01*
X810200D01*
Y576594D01*
X808600D01*
X809000Y576994D02*
Y577794D01*
X809800D01*
Y576994D01*
X809000D01*
X798600Y576594D02*
Y578194D01*
X800200D01*
Y576594D01*
X798600D01*
X799000Y576994D02*
Y577794D01*
X799800D01*
Y576994D01*
X799000D01*
X788600Y576594D02*
Y578194D01*
X790200D01*
Y576594D01*
X788600D01*
X789000Y576994D02*
Y577794D01*
X789800D01*
Y576994D01*
X789000D01*
X778600Y576594D02*
Y578194D01*
X780200D01*
Y576594D01*
X778600D01*
X779000Y576994D02*
Y577794D01*
X779800D01*
Y576994D01*
X779000D01*
X993000Y299000D02*
X993400Y299400D01*
X993800D01*
X993400Y299800D01*
X993800Y300200D01*
X993400D01*
X993000Y300600D01*
X992600Y300200D01*
X992200D01*
X992600Y299800D01*
X992200Y299400D01*
X992600D01*
X993000Y299000D01*
Y299400D02*
X993200Y299600D01*
X993400D01*
X993200Y299800D01*
X993400Y300000D01*
X993200D01*
X993000Y300200D01*
X992800Y300000D01*
X992600D01*
X992800Y299800D01*
X992600Y299600D01*
X992800D01*
X993000Y299400D01*
X1050700Y303800D02*
X1051100Y304200D01*
X1051500D01*
X1051100Y304600D01*
X1051500Y305000D01*
X1051100D01*
X1050700Y305400D01*
X1050300Y305000D01*
X1049900D01*
X1050300Y304600D01*
X1049900Y304200D01*
X1050300D01*
X1050700Y303800D01*
Y304200D02*
X1050900Y304400D01*
X1051100D01*
X1050900Y304600D01*
X1051100Y304800D01*
X1050900D01*
X1050700Y305000D01*
X1050500Y304800D01*
X1050300D01*
X1050500Y304600D01*
X1050300Y304400D01*
X1050500D01*
X1050700Y304200D01*
X1166000Y319600D02*
X1166400Y320000D01*
X1166800D01*
X1166400Y320400D01*
X1166800Y320800D01*
X1166400D01*
X1166000Y321200D01*
X1165600Y320800D01*
X1165200D01*
X1165600Y320400D01*
X1165200Y320000D01*
X1165600D01*
X1166000Y319600D01*
Y320000D02*
X1166200Y320200D01*
X1166400D01*
X1166200Y320400D01*
X1166400Y320600D01*
X1166200D01*
X1166000Y320800D01*
X1165800Y320600D01*
X1165600D01*
X1165800Y320400D01*
X1165600Y320200D01*
X1165800D01*
X1166000Y320000D01*
X1161600Y316600D02*
X1162000Y317000D01*
X1162400D01*
X1162000Y317400D01*
X1162400Y317800D01*
X1162000D01*
X1161600Y318200D01*
X1161200Y317800D01*
X1160800D01*
X1161200Y317400D01*
X1160800Y317000D01*
X1161200D01*
X1161600Y316600D01*
Y317000D02*
X1161800Y317200D01*
X1162000D01*
X1161800Y317400D01*
X1162000Y317600D01*
X1161800D01*
X1161600Y317800D01*
X1161400Y317600D01*
X1161200D01*
X1161400Y317400D01*
X1161200Y317200D01*
X1161400D01*
X1161600Y317000D01*
X798000Y305700D02*
X798400Y306100D01*
X798800D01*
X798400Y306500D01*
X798800Y306900D01*
X798400D01*
X798000Y307300D01*
X797600Y306900D01*
X797200D01*
X797600Y306500D01*
X797200Y306100D01*
X797600D01*
X798000Y305700D01*
Y306100D02*
X798200Y306300D01*
X798400D01*
X798200Y306500D01*
X798400Y306700D01*
X798200D01*
X798000Y306900D01*
X797800Y306700D01*
X797600D01*
X797800Y306500D01*
X797600Y306300D01*
X797800D01*
X798000Y306100D01*
X847500Y382700D02*
X847900Y383100D01*
X848300D01*
X847900Y383500D01*
X848300Y383900D01*
X847900D01*
X847500Y384300D01*
X847100Y383900D01*
X846700D01*
X847100Y383500D01*
X846700Y383100D01*
X847100D01*
X847500Y382700D01*
Y383100D02*
X847700Y383300D01*
X847900D01*
X847700Y383500D01*
X847900Y383700D01*
X847700D01*
X847500Y383900D01*
X847300Y383700D01*
X847100D01*
X847300Y383500D01*
X847100Y383300D01*
X847300D01*
X847500Y383100D01*
X855000Y389200D02*
X855400Y389600D01*
X855800D01*
X855400Y390000D01*
X855800Y390400D01*
X855400D01*
X855000Y390800D01*
X854600Y390400D01*
X854200D01*
X854600Y390000D01*
X854200Y389600D01*
X854600D01*
X855000Y389200D01*
Y389600D02*
X855200Y389800D01*
X855400D01*
X855200Y390000D01*
X855400Y390200D01*
X855200D01*
X855000Y390400D01*
X854800Y390200D01*
X854600D01*
X854800Y390000D01*
X854600Y389800D01*
X854800D01*
X855000Y389600D01*
X917000Y498200D02*
X917400Y498600D01*
X917800D01*
X917400Y499000D01*
X917800Y499400D01*
X917400D01*
X917000Y499800D01*
X916600Y499400D01*
X916200D01*
X916600Y499000D01*
X916200Y498600D01*
X916600D01*
X917000Y498200D01*
Y498600D02*
X917200Y498800D01*
X917400D01*
X917200Y499000D01*
X917400Y499200D01*
X917200D01*
X917000Y499400D01*
X916800Y499200D01*
X916600D01*
X916800Y499000D01*
X916600Y498800D01*
X916800D01*
X917000Y498600D01*
X908000Y498200D02*
X908400Y498600D01*
X908800D01*
X908400Y499000D01*
X908800Y499400D01*
X908400D01*
X908000Y499800D01*
X907600Y499400D01*
X907200D01*
X907600Y499000D01*
X907200Y498600D01*
X907600D01*
X908000Y498200D01*
Y498600D02*
X908200Y498800D01*
X908400D01*
X908200Y499000D01*
X908400Y499200D01*
X908200D01*
X908000Y499400D01*
X907800Y499200D01*
X907600D01*
X907800Y499000D01*
X907600Y498800D01*
X907800D01*
X908000Y498600D01*
X897500Y498200D02*
X897900Y498600D01*
X898300D01*
X897900Y499000D01*
X898300Y499400D01*
X897900D01*
X897500Y499800D01*
X897100Y499400D01*
X896700D01*
X897100Y499000D01*
X896700Y498600D01*
X897100D01*
X897500Y498200D01*
Y498600D02*
X897700Y498800D01*
X897900D01*
X897700Y499000D01*
X897900Y499200D01*
X897700D01*
X897500Y499400D01*
X897300Y499200D01*
X897100D01*
X897300Y499000D01*
X897100Y498800D01*
X897300D01*
X897500Y498600D01*
X866000Y399700D02*
X866400Y400100D01*
X866800D01*
X866400Y400500D01*
X866800Y400900D01*
X866400D01*
X866000Y401300D01*
X865600Y400900D01*
X865200D01*
X865600Y400500D01*
X865200Y400100D01*
X865600D01*
X866000Y399700D01*
Y400100D02*
X866200Y400300D01*
X866400D01*
X866200Y400500D01*
X866400Y400700D01*
X866200D01*
X866000Y400900D01*
X865800Y400700D01*
X865600D01*
X865800Y400500D01*
X865600Y400300D01*
X865800D01*
X866000Y400100D01*
X773000Y451700D02*
X773400Y452100D01*
X773800D01*
X773400Y452500D01*
X773800Y452900D01*
X773400D01*
X773000Y453300D01*
X772600Y452900D01*
X772200D01*
X772600Y452500D01*
X772200Y452100D01*
X772600D01*
X773000Y451700D01*
Y452100D02*
X773200Y452300D01*
X773400D01*
X773200Y452500D01*
X773400Y452700D01*
X773200D01*
X773000Y452900D01*
X772800Y452700D01*
X772600D01*
X772800Y452500D01*
X772600Y452300D01*
X772800D01*
X773000Y452100D01*
X769000Y395700D02*
X769400Y396100D01*
X769800D01*
X769400Y396500D01*
X769800Y396900D01*
X769400D01*
X769000Y397300D01*
X768600Y396900D01*
X768200D01*
X768600Y396500D01*
X768200Y396100D01*
X768600D01*
X769000Y395700D01*
Y396100D02*
X769200Y396300D01*
X769400D01*
X769200Y396500D01*
X769400Y396700D01*
X769200D01*
X769000Y396900D01*
X768800Y396700D01*
X768600D01*
X768800Y396500D01*
X768600Y396300D01*
X768800D01*
X769000Y396100D01*
X782948Y407330D02*
X783348Y407730D01*
X783748D01*
X783348Y408130D01*
X783748Y408530D01*
X783348D01*
X782948Y408930D01*
X782548Y408530D01*
X782148D01*
X782548Y408130D01*
X782148Y407730D01*
X782548D01*
X782948Y407330D01*
Y407730D02*
X783148Y407930D01*
X783348D01*
X783148Y408130D01*
X783348Y408330D01*
X783148D01*
X782948Y408530D01*
X782748Y408330D01*
X782548D01*
X782748Y408130D01*
X782548Y407930D01*
X782748D01*
X782948Y407730D01*
X796000Y268200D02*
X796400Y268600D01*
X796800D01*
X796400Y269000D01*
X796800Y269400D01*
X796400D01*
X796000Y269800D01*
X795600Y269400D01*
X795200D01*
X795600Y269000D01*
X795200Y268600D01*
X795600D01*
X796000Y268200D01*
Y268600D02*
X796200Y268800D01*
X796400D01*
X796200Y269000D01*
X796400Y269200D01*
X796200D01*
X796000Y269400D01*
X795800Y269200D01*
X795600D01*
X795800Y269000D01*
X795600Y268800D01*
X795800D01*
X796000Y268600D01*
X789000Y268200D02*
X789400Y268600D01*
X789800D01*
X789400Y269000D01*
X789800Y269400D01*
X789400D01*
X789000Y269800D01*
X788600Y269400D01*
X788200D01*
X788600Y269000D01*
X788200Y268600D01*
X788600D01*
X789000Y268200D01*
Y268600D02*
X789200Y268800D01*
X789400D01*
X789200Y269000D01*
X789400Y269200D01*
X789200D01*
X789000Y269400D01*
X788800Y269200D01*
X788600D01*
X788800Y269000D01*
X788600Y268800D01*
X788800D01*
X789000Y268600D01*
X782000Y268200D02*
X782400Y268600D01*
X782800D01*
X782400Y269000D01*
X782800Y269400D01*
X782400D01*
X782000Y269800D01*
X781600Y269400D01*
X781200D01*
X781600Y269000D01*
X781200Y268600D01*
X781600D01*
X782000Y268200D01*
Y268600D02*
X782200Y268800D01*
X782400D01*
X782200Y269000D01*
X782400Y269200D01*
X782200D01*
X782000Y269400D01*
X781800Y269200D01*
X781600D01*
X781800Y269000D01*
X781600Y268800D01*
X781800D01*
X782000Y268600D01*
X835000Y270200D02*
X835400Y270600D01*
X835800D01*
X835400Y271000D01*
X835800Y271400D01*
X835400D01*
X835000Y271800D01*
X834600Y271400D01*
X834200D01*
X834600Y271000D01*
X834200Y270600D01*
X834600D01*
X835000Y270200D01*
Y270600D02*
X835200Y270800D01*
X835400D01*
X835200Y271000D01*
X835400Y271200D01*
X835200D01*
X835000Y271400D01*
X834800Y271200D01*
X834600D01*
X834800Y271000D01*
X834600Y270800D01*
X834800D01*
X835000Y270600D01*
Y277200D02*
X835400Y277600D01*
X835800D01*
X835400Y278000D01*
X835800Y278400D01*
X835400D01*
X835000Y278800D01*
X834600Y278400D01*
X834200D01*
X834600Y278000D01*
X834200Y277600D01*
X834600D01*
X835000Y277200D01*
Y277600D02*
X835200Y277800D01*
X835400D01*
X835200Y278000D01*
X835400Y278200D01*
X835200D01*
X835000Y278400D01*
X834800Y278200D01*
X834600D01*
X834800Y278000D01*
X834600Y277800D01*
X834800D01*
X835000Y277600D01*
X891500Y287200D02*
X891900Y287600D01*
X892300D01*
X891900Y288000D01*
X892300Y288400D01*
X891900D01*
X891500Y288800D01*
X891100Y288400D01*
X890700D01*
X891100Y288000D01*
X890700Y287600D01*
X891100D01*
X891500Y287200D01*
Y287600D02*
X891700Y287800D01*
X891900D01*
X891700Y288000D01*
X891900Y288200D01*
X891700D01*
X891500Y288400D01*
X891300Y288200D01*
X891100D01*
X891300Y288000D01*
X891100Y287800D01*
X891300D01*
X891500Y287600D01*
X898500Y287200D02*
X898900Y287600D01*
X899300D01*
X898900Y288000D01*
X899300Y288400D01*
X898900D01*
X898500Y288800D01*
X898100Y288400D01*
X897700D01*
X898100Y288000D01*
X897700Y287600D01*
X898100D01*
X898500Y287200D01*
Y287600D02*
X898700Y287800D01*
X898900D01*
X898700Y288000D01*
X898900Y288200D01*
X898700D01*
X898500Y288400D01*
X898300Y288200D01*
X898100D01*
X898300Y288000D01*
X898100Y287800D01*
X898300D01*
X898500Y287600D01*
X876500Y268700D02*
X876900Y269100D01*
X877300D01*
X876900Y269500D01*
X877300Y269900D01*
X876900D01*
X876500Y270300D01*
X876100Y269900D01*
X875700D01*
X876100Y269500D01*
X875700Y269100D01*
X876100D01*
X876500Y268700D01*
Y269100D02*
X876700Y269300D01*
X876900D01*
X876700Y269500D01*
X876900Y269700D01*
X876700D01*
X876500Y269900D01*
X876300Y269700D01*
X876100D01*
X876300Y269500D01*
X876100Y269300D01*
X876300D01*
X876500Y269100D01*
X905000Y267700D02*
X905400Y268100D01*
X905800D01*
X905400Y268500D01*
X905800Y268900D01*
X905400D01*
X905000Y269300D01*
X904600Y268900D01*
X904200D01*
X904600Y268500D01*
X904200Y268100D01*
X904600D01*
X905000Y267700D01*
Y268100D02*
X905200Y268300D01*
X905400D01*
X905200Y268500D01*
X905400Y268700D01*
X905200D01*
X905000Y268900D01*
X904800Y268700D01*
X904600D01*
X904800Y268500D01*
X904600Y268300D01*
X904800D01*
X905000Y268100D01*
X819000Y311700D02*
X819400Y312100D01*
X819800D01*
X819400Y312500D01*
X819800Y312900D01*
X819400D01*
X819000Y313300D01*
X818600Y312900D01*
X818200D01*
X818600Y312500D01*
X818200Y312100D01*
X818600D01*
X819000Y311700D01*
Y312100D02*
X819200Y312300D01*
X819400D01*
X819200Y312500D01*
X819400Y312700D01*
X819200D01*
X819000Y312900D01*
X818800Y312700D01*
X818600D01*
X818800Y312500D01*
X818600Y312300D01*
X818800D01*
X819000Y312100D01*
X809500Y303700D02*
X809900Y304100D01*
X810300D01*
X809900Y304500D01*
X810300Y304900D01*
X809900D01*
X809500Y305300D01*
X809100Y304900D01*
X808700D01*
X809100Y304500D01*
X808700Y304100D01*
X809100D01*
X809500Y303700D01*
Y304100D02*
X809700Y304300D01*
X809900D01*
X809700Y304500D01*
X809900Y304700D01*
X809700D01*
X809500Y304900D01*
X809300Y304700D01*
X809100D01*
X809300Y304500D01*
X809100Y304300D01*
X809300D01*
X809500Y304100D01*
X819000Y300700D02*
X819400Y301100D01*
X819800D01*
X819400Y301500D01*
X819800Y301900D01*
X819400D01*
X819000Y302300D01*
X818600Y301900D01*
X818200D01*
X818600Y301500D01*
X818200Y301100D01*
X818600D01*
X819000Y300700D01*
Y301100D02*
X819200Y301300D01*
X819400D01*
X819200Y301500D01*
X819400Y301700D01*
X819200D01*
X819000Y301900D01*
X818800Y301700D01*
X818600D01*
X818800Y301500D01*
X818600Y301300D01*
X818800D01*
X819000Y301100D01*
X825500Y287700D02*
X825900Y288100D01*
X826300D01*
X825900Y288500D01*
X826300Y288900D01*
X825900D01*
X825500Y289300D01*
X825100Y288900D01*
X824700D01*
X825100Y288500D01*
X824700Y288100D01*
X825100D01*
X825500Y287700D01*
Y288100D02*
X825700Y288300D01*
X825900D01*
X825700Y288500D01*
X825900Y288700D01*
X825700D01*
X825500Y288900D01*
X825300Y288700D01*
X825100D01*
X825300Y288500D01*
X825100Y288300D01*
X825300D01*
X825500Y288100D01*
X879500Y281700D02*
X879900Y282100D01*
X880300D01*
X879900Y282500D01*
X880300Y282900D01*
X879900D01*
X879500Y283300D01*
X879100Y282900D01*
X878700D01*
X879100Y282500D01*
X878700Y282100D01*
X879100D01*
X879500Y281700D01*
Y282100D02*
X879700Y282300D01*
X879900D01*
X879700Y282500D01*
X879900Y282700D01*
X879700D01*
X879500Y282900D01*
X879300Y282700D01*
X879100D01*
X879300Y282500D01*
X879100Y282300D01*
X879300D01*
X879500Y282100D01*
X880000Y289200D02*
X880400Y289600D01*
X880800D01*
X880400Y290000D01*
X880800Y290400D01*
X880400D01*
X880000Y290800D01*
X879600Y290400D01*
X879200D01*
X879600Y290000D01*
X879200Y289600D01*
X879600D01*
X880000Y289200D01*
Y289600D02*
X880200Y289800D01*
X880400D01*
X880200Y290000D01*
X880400Y290200D01*
X880200D01*
X880000Y290400D01*
X879800Y290200D01*
X879600D01*
X879800Y290000D01*
X879600Y289800D01*
X879800D01*
X880000Y289600D01*
X741000Y327450D02*
X741400Y327850D01*
X741800D01*
X741400Y328250D01*
X741800Y328650D01*
X741400D01*
X741000Y329050D01*
X740600Y328650D01*
X740200D01*
X740600Y328250D01*
X740200Y327850D01*
X740600D01*
X741000Y327450D01*
Y327850D02*
X741200Y328050D01*
X741400D01*
X741200Y328250D01*
X741400Y328450D01*
X741200D01*
X741000Y328650D01*
X740800Y328450D01*
X740600D01*
X740800Y328250D01*
X740600Y328050D01*
X740800D01*
X741000Y327850D01*
X737407Y331474D02*
X737808Y331874D01*
X738207D01*
X737808Y332275D01*
X738207Y332675D01*
X737808D01*
X737407Y333074D01*
X737008Y332675D01*
X736608D01*
X737008Y332275D01*
X736608Y331874D01*
X737008D01*
X737407Y331474D01*
Y331874D02*
X737607Y332074D01*
X737808D01*
X737607Y332275D01*
X737808Y332474D01*
X737607D01*
X737407Y332675D01*
X737208Y332474D01*
X737008D01*
X737208Y332275D01*
X737008Y332074D01*
X737208D01*
X737407Y331874D01*
X1000000Y263200D02*
X1000400Y263600D01*
X1000800D01*
X1000400Y264000D01*
X1000800Y264400D01*
X1000400D01*
X1000000Y264800D01*
X999600Y264400D01*
X999200D01*
X999600Y264000D01*
X999200Y263600D01*
X999600D01*
X1000000Y263200D01*
Y263600D02*
X1000200Y263800D01*
X1000400D01*
X1000200Y264000D01*
X1000400Y264200D01*
X1000200D01*
X1000000Y264400D01*
X999800Y264200D01*
X999600D01*
X999800Y264000D01*
X999600Y263800D01*
X999800D01*
X1000000Y263600D01*
X663000Y574200D02*
X663400Y574600D01*
X663800D01*
X663400Y575000D01*
X663800Y575400D01*
X663400D01*
X663000Y575800D01*
X662600Y575400D01*
X662200D01*
X662600Y575000D01*
X662200Y574600D01*
X662600D01*
X663000Y574200D01*
Y574600D02*
X663200Y574800D01*
X663400D01*
X663200Y575000D01*
X663400Y575200D01*
X663200D01*
X663000Y575400D01*
X662800Y575200D01*
X662600D01*
X662800Y575000D01*
X662600Y574800D01*
X662800D01*
X663000Y574600D01*
X1195000Y414200D02*
X1195400Y414600D01*
X1195800D01*
X1195400Y415000D01*
X1195800Y415400D01*
X1195400D01*
X1195000Y415800D01*
X1194600Y415400D01*
X1194200D01*
X1194600Y415000D01*
X1194200Y414600D01*
X1194600D01*
X1195000Y414200D01*
Y414600D02*
X1195200Y414800D01*
X1195400D01*
X1195200Y415000D01*
X1195400Y415200D01*
X1195200D01*
X1195000Y415400D01*
X1194800Y415200D01*
X1194600D01*
X1194800Y415000D01*
X1194600Y414800D01*
X1194800D01*
X1195000Y414600D01*
Y403200D02*
X1195400Y403600D01*
X1195800D01*
X1195400Y404000D01*
X1195800Y404400D01*
X1195400D01*
X1195000Y404800D01*
X1194600Y404400D01*
X1194200D01*
X1194600Y404000D01*
X1194200Y403600D01*
X1194600D01*
X1195000Y403200D01*
Y403600D02*
X1195200Y403800D01*
X1195400D01*
X1195200Y404000D01*
X1195400Y404200D01*
X1195200D01*
X1195000Y404400D01*
X1194800Y404200D01*
X1194600D01*
X1194800Y404000D01*
X1194600Y403800D01*
X1194800D01*
X1195000Y403600D01*
Y392200D02*
X1195400Y392600D01*
X1195800D01*
X1195400Y393000D01*
X1195800Y393400D01*
X1195400D01*
X1195000Y393800D01*
X1194600Y393400D01*
X1194200D01*
X1194600Y393000D01*
X1194200Y392600D01*
X1194600D01*
X1195000Y392200D01*
Y392600D02*
X1195200Y392800D01*
X1195400D01*
X1195200Y393000D01*
X1195400Y393200D01*
X1195200D01*
X1195000Y393400D01*
X1194800Y393200D01*
X1194600D01*
X1194800Y393000D01*
X1194600Y392800D01*
X1194800D01*
X1195000Y392600D01*
X1085000Y416200D02*
X1085400Y416600D01*
X1085800D01*
X1085400Y417000D01*
X1085800Y417400D01*
X1085400D01*
X1085000Y417800D01*
X1084600Y417400D01*
X1084200D01*
X1084600Y417000D01*
X1084200Y416600D01*
X1084600D01*
X1085000Y416200D01*
Y416600D02*
X1085200Y416800D01*
X1085400D01*
X1085200Y417000D01*
X1085400Y417200D01*
X1085200D01*
X1085000Y417400D01*
X1084800Y417200D01*
X1084600D01*
X1084800Y417000D01*
X1084600Y416800D01*
X1084800D01*
X1085000Y416600D01*
Y405200D02*
X1085400Y405600D01*
X1085800D01*
X1085400Y406000D01*
X1085800Y406400D01*
X1085400D01*
X1085000Y406800D01*
X1084600Y406400D01*
X1084200D01*
X1084600Y406000D01*
X1084200Y405600D01*
X1084600D01*
X1085000Y405200D01*
Y405600D02*
X1085200Y405800D01*
X1085400D01*
X1085200Y406000D01*
X1085400Y406200D01*
X1085200D01*
X1085000Y406400D01*
X1084800Y406200D01*
X1084600D01*
X1084800Y406000D01*
X1084600Y405800D01*
X1084800D01*
X1085000Y405600D01*
Y394200D02*
X1085400Y394600D01*
X1085800D01*
X1085400Y395000D01*
X1085800Y395400D01*
X1085400D01*
X1085000Y395800D01*
X1084600Y395400D01*
X1084200D01*
X1084600Y395000D01*
X1084200Y394600D01*
X1084600D01*
X1085000Y394200D01*
Y394600D02*
X1085200Y394800D01*
X1085400D01*
X1085200Y395000D01*
X1085400Y395200D01*
X1085200D01*
X1085000Y395400D01*
X1084800Y395200D01*
X1084600D01*
X1084800Y395000D01*
X1084600Y394800D01*
X1084800D01*
X1085000Y394600D01*
Y427200D02*
X1085400Y427600D01*
X1085800D01*
X1085400Y428000D01*
X1085800Y428400D01*
X1085400D01*
X1085000Y428800D01*
X1084600Y428400D01*
X1084200D01*
X1084600Y428000D01*
X1084200Y427600D01*
X1084600D01*
X1085000Y427200D01*
Y427600D02*
X1085200Y427800D01*
X1085400D01*
X1085200Y428000D01*
X1085400Y428200D01*
X1085200D01*
X1085000Y428400D01*
X1084800Y428200D01*
X1084600D01*
X1084800Y428000D01*
X1084600Y427800D01*
X1084800D01*
X1085000Y427600D01*
Y438200D02*
X1085400Y438600D01*
X1085800D01*
X1085400Y439000D01*
X1085800Y439400D01*
X1085400D01*
X1085000Y439800D01*
X1084600Y439400D01*
X1084200D01*
X1084600Y439000D01*
X1084200Y438600D01*
X1084600D01*
X1085000Y438200D01*
Y438600D02*
X1085200Y438800D01*
X1085400D01*
X1085200Y439000D01*
X1085400Y439200D01*
X1085200D01*
X1085000Y439400D01*
X1084800Y439200D01*
X1084600D01*
X1084800Y439000D01*
X1084600Y438800D01*
X1084800D01*
X1085000Y438600D01*
Y449200D02*
X1085400Y449600D01*
X1085800D01*
X1085400Y450000D01*
X1085800Y450400D01*
X1085400D01*
X1085000Y450800D01*
X1084600Y450400D01*
X1084200D01*
X1084600Y450000D01*
X1084200Y449600D01*
X1084600D01*
X1085000Y449200D01*
Y449600D02*
X1085200Y449800D01*
X1085400D01*
X1085200Y450000D01*
X1085400Y450200D01*
X1085200D01*
X1085000Y450400D01*
X1084800Y450200D01*
X1084600D01*
X1084800Y450000D01*
X1084600Y449800D01*
X1084800D01*
X1085000Y449600D01*
Y460200D02*
X1085400Y460600D01*
X1085800D01*
X1085400Y461000D01*
X1085800Y461400D01*
X1085400D01*
X1085000Y461800D01*
X1084600Y461400D01*
X1084200D01*
X1084600Y461000D01*
X1084200Y460600D01*
X1084600D01*
X1085000Y460200D01*
Y460600D02*
X1085200Y460800D01*
X1085400D01*
X1085200Y461000D01*
X1085400Y461200D01*
X1085200D01*
X1085000Y461400D01*
X1084800Y461200D01*
X1084600D01*
X1084800Y461000D01*
X1084600Y460800D01*
X1084800D01*
X1085000Y460600D01*
Y471200D02*
X1085400Y471600D01*
X1085800D01*
X1085400Y472000D01*
X1085800Y472400D01*
X1085400D01*
X1085000Y472800D01*
X1084600Y472400D01*
X1084200D01*
X1084600Y472000D01*
X1084200Y471600D01*
X1084600D01*
X1085000Y471200D01*
Y471600D02*
X1085200Y471800D01*
X1085400D01*
X1085200Y472000D01*
X1085400Y472200D01*
X1085200D01*
X1085000Y472400D01*
X1084800Y472200D01*
X1084600D01*
X1084800Y472000D01*
X1084600Y471800D01*
X1084800D01*
X1085000Y471600D01*
X1195000Y425200D02*
X1195400Y425600D01*
X1195800D01*
X1195400Y426000D01*
X1195800Y426400D01*
X1195400D01*
X1195000Y426800D01*
X1194600Y426400D01*
X1194200D01*
X1194600Y426000D01*
X1194200Y425600D01*
X1194600D01*
X1195000Y425200D01*
Y425600D02*
X1195200Y425800D01*
X1195400D01*
X1195200Y426000D01*
X1195400Y426200D01*
X1195200D01*
X1195000Y426400D01*
X1194800Y426200D01*
X1194600D01*
X1194800Y426000D01*
X1194600Y425800D01*
X1194800D01*
X1195000Y425600D01*
Y436200D02*
X1195400Y436600D01*
X1195800D01*
X1195400Y437000D01*
X1195800Y437400D01*
X1195400D01*
X1195000Y437800D01*
X1194600Y437400D01*
X1194200D01*
X1194600Y437000D01*
X1194200Y436600D01*
X1194600D01*
X1195000Y436200D01*
Y436600D02*
X1195200Y436800D01*
X1195400D01*
X1195200Y437000D01*
X1195400Y437200D01*
X1195200D01*
X1195000Y437400D01*
X1194800Y437200D01*
X1194600D01*
X1194800Y437000D01*
X1194600Y436800D01*
X1194800D01*
X1195000Y436600D01*
Y447200D02*
X1195400Y447600D01*
X1195800D01*
X1195400Y448000D01*
X1195800Y448400D01*
X1195400D01*
X1195000Y448800D01*
X1194600Y448400D01*
X1194200D01*
X1194600Y448000D01*
X1194200Y447600D01*
X1194600D01*
X1195000Y447200D01*
Y447600D02*
X1195200Y447800D01*
X1195400D01*
X1195200Y448000D01*
X1195400Y448200D01*
X1195200D01*
X1195000Y448400D01*
X1194800Y448200D01*
X1194600D01*
X1194800Y448000D01*
X1194600Y447800D01*
X1194800D01*
X1195000Y447600D01*
Y458200D02*
X1195400Y458600D01*
X1195800D01*
X1195400Y459000D01*
X1195800Y459400D01*
X1195400D01*
X1195000Y459800D01*
X1194600Y459400D01*
X1194200D01*
X1194600Y459000D01*
X1194200Y458600D01*
X1194600D01*
X1195000Y458200D01*
Y458600D02*
X1195200Y458800D01*
X1195400D01*
X1195200Y459000D01*
X1195400Y459200D01*
X1195200D01*
X1195000Y459400D01*
X1194800Y459200D01*
X1194600D01*
X1194800Y459000D01*
X1194600Y458800D01*
X1194800D01*
X1195000Y458600D01*
Y469200D02*
X1195400Y469600D01*
X1195800D01*
X1195400Y470000D01*
X1195800Y470400D01*
X1195400D01*
X1195000Y470800D01*
X1194600Y470400D01*
X1194200D01*
X1194600Y470000D01*
X1194200Y469600D01*
X1194600D01*
X1195000Y469200D01*
Y469600D02*
X1195200Y469800D01*
X1195400D01*
X1195200Y470000D01*
X1195400Y470200D01*
X1195200D01*
X1195000Y470400D01*
X1194800Y470200D01*
X1194600D01*
X1194800Y470000D01*
X1194600Y469800D01*
X1194800D01*
X1195000Y469600D01*
Y480200D02*
X1195400Y480600D01*
X1195800D01*
X1195400Y481000D01*
X1195800Y481400D01*
X1195400D01*
X1195000Y481800D01*
X1194600Y481400D01*
X1194200D01*
X1194600Y481000D01*
X1194200Y480600D01*
X1194600D01*
X1195000Y480200D01*
Y480600D02*
X1195200Y480800D01*
X1195400D01*
X1195200Y481000D01*
X1195400Y481200D01*
X1195200D01*
X1195000Y481400D01*
X1194800Y481200D01*
X1194600D01*
X1194800Y481000D01*
X1194600Y480800D01*
X1194800D01*
X1195000Y480600D01*
Y491200D02*
X1195400Y491600D01*
X1195800D01*
X1195400Y492000D01*
X1195800Y492400D01*
X1195400D01*
X1195000Y492800D01*
X1194600Y492400D01*
X1194200D01*
X1194600Y492000D01*
X1194200Y491600D01*
X1194600D01*
X1195000Y491200D01*
Y491600D02*
X1195200Y491800D01*
X1195400D01*
X1195200Y492000D01*
X1195400Y492200D01*
X1195200D01*
X1195000Y492400D01*
X1194800Y492200D01*
X1194600D01*
X1194800Y492000D01*
X1194600Y491800D01*
X1194800D01*
X1195000Y491600D01*
Y502200D02*
X1195400Y502600D01*
X1195800D01*
X1195400Y503000D01*
X1195800Y503400D01*
X1195400D01*
X1195000Y503800D01*
X1194600Y503400D01*
X1194200D01*
X1194600Y503000D01*
X1194200Y502600D01*
X1194600D01*
X1195000Y502200D01*
Y502600D02*
X1195200Y502800D01*
X1195400D01*
X1195200Y503000D01*
X1195400Y503200D01*
X1195200D01*
X1195000Y503400D01*
X1194800Y503200D01*
X1194600D01*
X1194800Y503000D01*
X1194600Y502800D01*
X1194800D01*
X1195000Y502600D01*
Y513200D02*
X1195400Y513600D01*
X1195800D01*
X1195400Y514000D01*
X1195800Y514400D01*
X1195400D01*
X1195000Y514800D01*
X1194600Y514400D01*
X1194200D01*
X1194600Y514000D01*
X1194200Y513600D01*
X1194600D01*
X1195000Y513200D01*
Y513600D02*
X1195200Y513800D01*
X1195400D01*
X1195200Y514000D01*
X1195400Y514200D01*
X1195200D01*
X1195000Y514400D01*
X1194800Y514200D01*
X1194600D01*
X1194800Y514000D01*
X1194600Y513800D01*
X1194800D01*
X1195000Y513600D01*
X1044000Y263200D02*
X1044400Y263600D01*
X1044800D01*
X1044400Y264000D01*
X1044800Y264400D01*
X1044400D01*
X1044000Y264800D01*
X1043600Y264400D01*
X1043200D01*
X1043600Y264000D01*
X1043200Y263600D01*
X1043600D01*
X1044000Y263200D01*
Y263600D02*
X1044200Y263800D01*
X1044400D01*
X1044200Y264000D01*
X1044400Y264200D01*
X1044200D01*
X1044000Y264400D01*
X1043800Y264200D01*
X1043600D01*
X1043800Y264000D01*
X1043600Y263800D01*
X1043800D01*
X1044000Y263600D01*
X1033000Y263200D02*
X1033400Y263600D01*
X1033800D01*
X1033400Y264000D01*
X1033800Y264400D01*
X1033400D01*
X1033000Y264800D01*
X1032600Y264400D01*
X1032200D01*
X1032600Y264000D01*
X1032200Y263600D01*
X1032600D01*
X1033000Y263200D01*
Y263600D02*
X1033200Y263800D01*
X1033400D01*
X1033200Y264000D01*
X1033400Y264200D01*
X1033200D01*
X1033000Y264400D01*
X1032800Y264200D01*
X1032600D01*
X1032800Y264000D01*
X1032600Y263800D01*
X1032800D01*
X1033000Y263600D01*
X1055000Y263200D02*
X1055400Y263600D01*
X1055800D01*
X1055400Y264000D01*
X1055800Y264400D01*
X1055400D01*
X1055000Y264800D01*
X1054600Y264400D01*
X1054200D01*
X1054600Y264000D01*
X1054200Y263600D01*
X1054600D01*
X1055000Y263200D01*
Y263600D02*
X1055200Y263800D01*
X1055400D01*
X1055200Y264000D01*
X1055400Y264200D01*
X1055200D01*
X1055000Y264400D01*
X1054800Y264200D01*
X1054600D01*
X1054800Y264000D01*
X1054600Y263800D01*
X1054800D01*
X1055000Y263600D01*
X1066000Y263200D02*
X1066400Y263600D01*
X1066800D01*
X1066400Y264000D01*
X1066800Y264400D01*
X1066400D01*
X1066000Y264800D01*
X1065600Y264400D01*
X1065200D01*
X1065600Y264000D01*
X1065200Y263600D01*
X1065600D01*
X1066000Y263200D01*
Y263600D02*
X1066200Y263800D01*
X1066400D01*
X1066200Y264000D01*
X1066400Y264200D01*
X1066200D01*
X1066000Y264400D01*
X1065800Y264200D01*
X1065600D01*
X1065800Y264000D01*
X1065600Y263800D01*
X1065800D01*
X1066000Y263600D01*
X1077000Y263200D02*
X1077400Y263600D01*
X1077800D01*
X1077400Y264000D01*
X1077800Y264400D01*
X1077400D01*
X1077000Y264800D01*
X1076600Y264400D01*
X1076200D01*
X1076600Y264000D01*
X1076200Y263600D01*
X1076600D01*
X1077000Y263200D01*
Y263600D02*
X1077200Y263800D01*
X1077400D01*
X1077200Y264000D01*
X1077400Y264200D01*
X1077200D01*
X1077000Y264400D01*
X1076800Y264200D01*
X1076600D01*
X1076800Y264000D01*
X1076600Y263800D01*
X1076800D01*
X1077000Y263600D01*
X1088000Y263200D02*
X1088400Y263600D01*
X1088800D01*
X1088400Y264000D01*
X1088800Y264400D01*
X1088400D01*
X1088000Y264800D01*
X1087600Y264400D01*
X1087200D01*
X1087600Y264000D01*
X1087200Y263600D01*
X1087600D01*
X1088000Y263200D01*
Y263600D02*
X1088200Y263800D01*
X1088400D01*
X1088200Y264000D01*
X1088400Y264200D01*
X1088200D01*
X1088000Y264400D01*
X1087800Y264200D01*
X1087600D01*
X1087800Y264000D01*
X1087600Y263800D01*
X1087800D01*
X1088000Y263600D01*
X1099000Y263200D02*
X1099400Y263600D01*
X1099800D01*
X1099400Y264000D01*
X1099800Y264400D01*
X1099400D01*
X1099000Y264800D01*
X1098600Y264400D01*
X1098200D01*
X1098600Y264000D01*
X1098200Y263600D01*
X1098600D01*
X1099000Y263200D01*
Y263600D02*
X1099200Y263800D01*
X1099400D01*
X1099200Y264000D01*
X1099400Y264200D01*
X1099200D01*
X1099000Y264400D01*
X1098800Y264200D01*
X1098600D01*
X1098800Y264000D01*
X1098600Y263800D01*
X1098800D01*
X1099000Y263600D01*
X1110000Y263200D02*
X1110400Y263600D01*
X1110800D01*
X1110400Y264000D01*
X1110800Y264400D01*
X1110400D01*
X1110000Y264800D01*
X1109600Y264400D01*
X1109200D01*
X1109600Y264000D01*
X1109200Y263600D01*
X1109600D01*
X1110000Y263200D01*
Y263600D02*
X1110200Y263800D01*
X1110400D01*
X1110200Y264000D01*
X1110400Y264200D01*
X1110200D01*
X1110000Y264400D01*
X1109800Y264200D01*
X1109600D01*
X1109800Y264000D01*
X1109600Y263800D01*
X1109800D01*
X1110000Y263600D01*
X1121000Y263200D02*
X1121400Y263600D01*
X1121800D01*
X1121400Y264000D01*
X1121800Y264400D01*
X1121400D01*
X1121000Y264800D01*
X1120600Y264400D01*
X1120200D01*
X1120600Y264000D01*
X1120200Y263600D01*
X1120600D01*
X1121000Y263200D01*
Y263600D02*
X1121200Y263800D01*
X1121400D01*
X1121200Y264000D01*
X1121400Y264200D01*
X1121200D01*
X1121000Y264400D01*
X1120800Y264200D01*
X1120600D01*
X1120800Y264000D01*
X1120600Y263800D01*
X1120800D01*
X1121000Y263600D01*
X1132000Y263200D02*
X1132400Y263600D01*
X1132800D01*
X1132400Y264000D01*
X1132800Y264400D01*
X1132400D01*
X1132000Y264800D01*
X1131600Y264400D01*
X1131200D01*
X1131600Y264000D01*
X1131200Y263600D01*
X1131600D01*
X1132000Y263200D01*
Y263600D02*
X1132200Y263800D01*
X1132400D01*
X1132200Y264000D01*
X1132400Y264200D01*
X1132200D01*
X1132000Y264400D01*
X1131800Y264200D01*
X1131600D01*
X1131800Y264000D01*
X1131600Y263800D01*
X1131800D01*
X1132000Y263600D01*
X1143000Y263200D02*
X1143400Y263600D01*
X1143800D01*
X1143400Y264000D01*
X1143800Y264400D01*
X1143400D01*
X1143000Y264800D01*
X1142600Y264400D01*
X1142200D01*
X1142600Y264000D01*
X1142200Y263600D01*
X1142600D01*
X1143000Y263200D01*
Y263600D02*
X1143200Y263800D01*
X1143400D01*
X1143200Y264000D01*
X1143400Y264200D01*
X1143200D01*
X1143000Y264400D01*
X1142800Y264200D01*
X1142600D01*
X1142800Y264000D01*
X1142600Y263800D01*
X1142800D01*
X1143000Y263600D01*
X989000Y263200D02*
X989400Y263600D01*
X989800D01*
X989400Y264000D01*
X989800Y264400D01*
X989400D01*
X989000Y264800D01*
X988600Y264400D01*
X988200D01*
X988600Y264000D01*
X988200Y263600D01*
X988600D01*
X989000Y263200D01*
Y263600D02*
X989200Y263800D01*
X989400D01*
X989200Y264000D01*
X989400Y264200D01*
X989200D01*
X989000Y264400D01*
X988800Y264200D01*
X988600D01*
X988800Y264000D01*
X988600Y263800D01*
X988800D01*
X989000Y263600D01*
X1011000Y263200D02*
X1011400Y263600D01*
X1011800D01*
X1011400Y264000D01*
X1011800Y264400D01*
X1011400D01*
X1011000Y264800D01*
X1010600Y264400D01*
X1010200D01*
X1010600Y264000D01*
X1010200Y263600D01*
X1010600D01*
X1011000Y263200D01*
Y263600D02*
X1011200Y263800D01*
X1011400D01*
X1011200Y264000D01*
X1011400Y264200D01*
X1011200D01*
X1011000Y264400D01*
X1010800Y264200D01*
X1010600D01*
X1010800Y264000D01*
X1010600Y263800D01*
X1010800D01*
X1011000Y263600D01*
X1022000Y263200D02*
X1022400Y263600D01*
X1022800D01*
X1022400Y264000D01*
X1022800Y264400D01*
X1022400D01*
X1022000Y264800D01*
X1021600Y264400D01*
X1021200D01*
X1021600Y264000D01*
X1021200Y263600D01*
X1021600D01*
X1022000Y263200D01*
Y263600D02*
X1022200Y263800D01*
X1022400D01*
X1022200Y264000D01*
X1022400Y264200D01*
X1022200D01*
X1022000Y264400D01*
X1021800Y264200D01*
X1021600D01*
X1021800Y264000D01*
X1021600Y263800D01*
X1021800D01*
X1022000Y263600D01*
X1139000Y524200D02*
X1139400Y524600D01*
X1139800D01*
X1139400Y525000D01*
X1139800Y525400D01*
X1139400D01*
X1139000Y525800D01*
X1138600Y525400D01*
X1138200D01*
X1138600Y525000D01*
X1138200Y524600D01*
X1138600D01*
X1139000Y524200D01*
Y524600D02*
X1139200Y524800D01*
X1139400D01*
X1139200Y525000D01*
X1139400Y525200D01*
X1139200D01*
X1139000Y525400D01*
X1138800Y525200D01*
X1138600D01*
X1138800Y525000D01*
X1138600Y524800D01*
X1138800D01*
X1139000Y524600D01*
X1155000Y524200D02*
X1155400Y524600D01*
X1155800D01*
X1155400Y525000D01*
X1155800Y525400D01*
X1155400D01*
X1155000Y525800D01*
X1154600Y525400D01*
X1154200D01*
X1154600Y525000D01*
X1154200Y524600D01*
X1154600D01*
X1155000Y524200D01*
Y524600D02*
X1155200Y524800D01*
X1155400D01*
X1155200Y525000D01*
X1155400Y525200D01*
X1155200D01*
X1155000Y525400D01*
X1154800Y525200D01*
X1154600D01*
X1154800Y525000D01*
X1154600Y524800D01*
X1154800D01*
X1155000Y524600D01*
X1139000Y536200D02*
X1139400Y536600D01*
X1139800D01*
X1139400Y537000D01*
X1139800Y537400D01*
X1139400D01*
X1139000Y537800D01*
X1138600Y537400D01*
X1138200D01*
X1138600Y537000D01*
X1138200Y536600D01*
X1138600D01*
X1139000Y536200D01*
Y536600D02*
X1139200Y536800D01*
X1139400D01*
X1139200Y537000D01*
X1139400Y537200D01*
X1139200D01*
X1139000Y537400D01*
X1138800Y537200D01*
X1138600D01*
X1138800Y537000D01*
X1138600Y536800D01*
X1138800D01*
X1139000Y536600D01*
X1155000Y536200D02*
X1155400Y536600D01*
X1155800D01*
X1155400Y537000D01*
X1155800Y537400D01*
X1155400D01*
X1155000Y537800D01*
X1154600Y537400D01*
X1154200D01*
X1154600Y537000D01*
X1154200Y536600D01*
X1154600D01*
X1155000Y536200D01*
Y536600D02*
X1155200Y536800D01*
X1155400D01*
X1155200Y537000D01*
X1155400Y537200D01*
X1155200D01*
X1155000Y537400D01*
X1154800Y537200D01*
X1154600D01*
X1154800Y537000D01*
X1154600Y536800D01*
X1154800D01*
X1155000Y536600D01*
X991500Y385200D02*
X991900Y385600D01*
X992300D01*
X991900Y386000D01*
X992300Y386400D01*
X991900D01*
X991500Y386800D01*
X991100Y386400D01*
X990700D01*
X991100Y386000D01*
X990700Y385600D01*
X991100D01*
X991500Y385200D01*
Y385600D02*
X991700Y385800D01*
X991900D01*
X991700Y386000D01*
X991900Y386200D01*
X991700D01*
X991500Y386400D01*
X991300Y386200D01*
X991100D01*
X991300Y386000D01*
X991100Y385800D01*
X991300D01*
X991500Y385600D01*
X1001500Y385200D02*
X1001900Y385600D01*
X1002300D01*
X1001900Y386000D01*
X1002300Y386400D01*
X1001900D01*
X1001500Y386800D01*
X1001100Y386400D01*
X1000700D01*
X1001100Y386000D01*
X1000700Y385600D01*
X1001100D01*
X1001500Y385200D01*
Y385600D02*
X1001700Y385800D01*
X1001900D01*
X1001700Y386000D01*
X1001900Y386200D01*
X1001700D01*
X1001500Y386400D01*
X1001300Y386200D01*
X1001100D01*
X1001300Y386000D01*
X1001100Y385800D01*
X1001300D01*
X1001500Y385600D01*
X1011500Y385200D02*
X1011900Y385600D01*
X1012300D01*
X1011900Y386000D01*
X1012300Y386400D01*
X1011900D01*
X1011500Y386800D01*
X1011100Y386400D01*
X1010700D01*
X1011100Y386000D01*
X1010700Y385600D01*
X1011100D01*
X1011500Y385200D01*
Y385600D02*
X1011700Y385800D01*
X1011900D01*
X1011700Y386000D01*
X1011900Y386200D01*
X1011700D01*
X1011500Y386400D01*
X1011300Y386200D01*
X1011100D01*
X1011300Y386000D01*
X1011100Y385800D01*
X1011300D01*
X1011500Y385600D01*
Y395200D02*
X1011900Y395600D01*
X1012300D01*
X1011900Y396000D01*
X1012300Y396400D01*
X1011900D01*
X1011500Y396800D01*
X1011100Y396400D01*
X1010700D01*
X1011100Y396000D01*
X1010700Y395600D01*
X1011100D01*
X1011500Y395200D01*
Y395600D02*
X1011700Y395800D01*
X1011900D01*
X1011700Y396000D01*
X1011900Y396200D01*
X1011700D01*
X1011500Y396400D01*
X1011300Y396200D01*
X1011100D01*
X1011300Y396000D01*
X1011100Y395800D01*
X1011300D01*
X1011500Y395600D01*
X1001500Y395200D02*
X1001900Y395600D01*
X1002300D01*
X1001900Y396000D01*
X1002300Y396400D01*
X1001900D01*
X1001500Y396800D01*
X1001100Y396400D01*
X1000700D01*
X1001100Y396000D01*
X1000700Y395600D01*
X1001100D01*
X1001500Y395200D01*
Y395600D02*
X1001700Y395800D01*
X1001900D01*
X1001700Y396000D01*
X1001900Y396200D01*
X1001700D01*
X1001500Y396400D01*
X1001300Y396200D01*
X1001100D01*
X1001300Y396000D01*
X1001100Y395800D01*
X1001300D01*
X1001500Y395600D01*
X991500Y395200D02*
X991900Y395600D01*
X992300D01*
X991900Y396000D01*
X992300Y396400D01*
X991900D01*
X991500Y396800D01*
X991100Y396400D01*
X990700D01*
X991100Y396000D01*
X990700Y395600D01*
X991100D01*
X991500Y395200D01*
Y395600D02*
X991700Y395800D01*
X991900D01*
X991700Y396000D01*
X991900Y396200D01*
X991700D01*
X991500Y396400D01*
X991300Y396200D01*
X991100D01*
X991300Y396000D01*
X991100Y395800D01*
X991300D01*
X991500Y395600D01*
X663000Y566200D02*
X663400Y566600D01*
X663800D01*
X663400Y567000D01*
X663800Y567400D01*
X663400D01*
X663000Y567800D01*
X662600Y567400D01*
X662200D01*
X662600Y567000D01*
X662200Y566600D01*
X662600D01*
X663000Y566200D01*
Y566600D02*
X663200Y566800D01*
X663400D01*
X663200Y567000D01*
X663400Y567200D01*
X663200D01*
X663000Y567400D01*
X662800Y567200D01*
X662600D01*
X662800Y567000D01*
X662600Y566800D01*
X662800D01*
X663000Y566600D01*
X653000Y574200D02*
X653400Y574600D01*
X653800D01*
X653400Y575000D01*
X653800Y575400D01*
X653400D01*
X653000Y575800D01*
X652600Y575400D01*
X652200D01*
X652600Y575000D01*
X652200Y574600D01*
X652600D01*
X653000Y574200D01*
Y574600D02*
X653200Y574800D01*
X653400D01*
X653200Y575000D01*
X653400Y575200D01*
X653200D01*
X653000Y575400D01*
X652800Y575200D01*
X652600D01*
X652800Y575000D01*
X652600Y574800D01*
X652800D01*
X653000Y574600D01*
Y566200D02*
X653400Y566600D01*
X653800D01*
X653400Y567000D01*
X653800Y567400D01*
X653400D01*
X653000Y567800D01*
X652600Y567400D01*
X652200D01*
X652600Y567000D01*
X652200Y566600D01*
X652600D01*
X653000Y566200D01*
Y566600D02*
X653200Y566800D01*
X653400D01*
X653200Y567000D01*
X653400Y567200D01*
X653200D01*
X653000Y567400D01*
X652800Y567200D01*
X652600D01*
X652800Y567000D01*
X652600Y566800D01*
X652800D01*
X653000Y566600D01*
X820000Y437200D02*
X820400Y437600D01*
X820800D01*
X820400Y438000D01*
X820800Y438400D01*
X820400D01*
X820000Y438800D01*
X819600Y438400D01*
X819200D01*
X819600Y438000D01*
X819200Y437600D01*
X819600D01*
X820000Y437200D01*
Y437600D02*
X820200Y437800D01*
X820400D01*
X820200Y438000D01*
X820400Y438200D01*
X820200D01*
X820000Y438400D01*
X819800Y438200D01*
X819600D01*
X819800Y438000D01*
X819600Y437800D01*
X819800D01*
X820000Y437600D01*
X809000Y437200D02*
X809400Y437600D01*
X809800D01*
X809400Y438000D01*
X809800Y438400D01*
X809400D01*
X809000Y438800D01*
X808600Y438400D01*
X808200D01*
X808600Y438000D01*
X808200Y437600D01*
X808600D01*
X809000Y437200D01*
Y437600D02*
X809200Y437800D01*
X809400D01*
X809200Y438000D01*
X809400Y438200D01*
X809200D01*
X809000Y438400D01*
X808800Y438200D01*
X808600D01*
X808800Y438000D01*
X808600Y437800D01*
X808800D01*
X809000Y437600D01*
X1165000Y434200D02*
X1165400Y434600D01*
X1165800D01*
X1165400Y435000D01*
X1165800Y435400D01*
X1165400D01*
X1165000Y435800D01*
X1164600Y435400D01*
X1164200D01*
X1164600Y435000D01*
X1164200Y434600D01*
X1164600D01*
X1165000Y434200D01*
Y434600D02*
X1165200Y434800D01*
X1165400D01*
X1165200Y435000D01*
X1165400Y435200D01*
X1165200D01*
X1165000Y435400D01*
X1164800Y435200D01*
X1164600D01*
X1164800Y435000D01*
X1164600Y434800D01*
X1164800D01*
X1165000Y434600D01*
X1149000Y434200D02*
X1149400Y434600D01*
X1149800D01*
X1149400Y435000D01*
X1149800Y435400D01*
X1149400D01*
X1149000Y435800D01*
X1148600Y435400D01*
X1148200D01*
X1148600Y435000D01*
X1148200Y434600D01*
X1148600D01*
X1149000Y434200D01*
Y434600D02*
X1149200Y434800D01*
X1149400D01*
X1149200Y435000D01*
X1149400Y435200D01*
X1149200D01*
X1149000Y435400D01*
X1148800Y435200D01*
X1148600D01*
X1148800Y435000D01*
X1148600Y434800D01*
X1148800D01*
X1149000Y434600D01*
X1166000Y398200D02*
X1166400Y398600D01*
X1166800D01*
X1166400Y399000D01*
X1166800Y399400D01*
X1166400D01*
X1166000Y399800D01*
X1165600Y399400D01*
X1165200D01*
X1165600Y399000D01*
X1165200Y398600D01*
X1165600D01*
X1166000Y398200D01*
Y398600D02*
X1166200Y398800D01*
X1166400D01*
X1166200Y399000D01*
X1166400Y399200D01*
X1166200D01*
X1166000Y399400D01*
X1165800Y399200D01*
X1165600D01*
X1165800Y399000D01*
X1165600Y398800D01*
X1165800D01*
X1166000Y398600D01*
X1087000Y340200D02*
X1087400Y340600D01*
X1087800D01*
X1087400Y341000D01*
X1087800Y341400D01*
X1087400D01*
X1087000Y341800D01*
X1086600Y341400D01*
X1086200D01*
X1086600Y341000D01*
X1086200Y340600D01*
X1086600D01*
X1087000Y340200D01*
Y340600D02*
X1087200Y340800D01*
X1087400D01*
X1087200Y341000D01*
X1087400Y341200D01*
X1087200D01*
X1087000Y341400D01*
X1086800Y341200D01*
X1086600D01*
X1086800Y341000D01*
X1086600Y340800D01*
X1086800D01*
X1087000Y340600D01*
Y350200D02*
X1087400Y350600D01*
X1087800D01*
X1087400Y351000D01*
X1087800Y351400D01*
X1087400D01*
X1087000Y351800D01*
X1086600Y351400D01*
X1086200D01*
X1086600Y351000D01*
X1086200Y350600D01*
X1086600D01*
X1087000Y350200D01*
Y350600D02*
X1087200Y350800D01*
X1087400D01*
X1087200Y351000D01*
X1087400Y351200D01*
X1087200D01*
X1087000Y351400D01*
X1086800Y351200D01*
X1086600D01*
X1086800Y351000D01*
X1086600Y350800D01*
X1086800D01*
X1087000Y350600D01*
X1136000Y339200D02*
X1136400Y339600D01*
X1136800D01*
X1136400Y340000D01*
X1136800Y340400D01*
X1136400D01*
X1136000Y340800D01*
X1135600Y340400D01*
X1135200D01*
X1135600Y340000D01*
X1135200Y339600D01*
X1135600D01*
X1136000Y339200D01*
Y339600D02*
X1136200Y339800D01*
X1136400D01*
X1136200Y340000D01*
X1136400Y340200D01*
X1136200D01*
X1136000Y340400D01*
X1135800Y340200D01*
X1135600D01*
X1135800Y340000D01*
X1135600Y339800D01*
X1135800D01*
X1136000Y339600D01*
X1103000Y339200D02*
X1103400Y339600D01*
X1103800D01*
X1103400Y340000D01*
X1103800Y340400D01*
X1103400D01*
X1103000Y340800D01*
X1102600Y340400D01*
X1102200D01*
X1102600Y340000D01*
X1102200Y339600D01*
X1102600D01*
X1103000Y339200D01*
Y339600D02*
X1103200Y339800D01*
X1103400D01*
X1103200Y340000D01*
X1103400Y340200D01*
X1103200D01*
X1103000Y340400D01*
X1102800Y340200D01*
X1102600D01*
X1102800Y340000D01*
X1102600Y339800D01*
X1102800D01*
X1103000Y339600D01*
X1120000Y339200D02*
X1120400Y339600D01*
X1120800D01*
X1120400Y340000D01*
X1120800Y340400D01*
X1120400D01*
X1120000Y340800D01*
X1119600Y340400D01*
X1119200D01*
X1119600Y340000D01*
X1119200Y339600D01*
X1119600D01*
X1120000Y339200D01*
Y339600D02*
X1120200Y339800D01*
X1120400D01*
X1120200Y340000D01*
X1120400Y340200D01*
X1120200D01*
X1120000Y340400D01*
X1119800Y340200D01*
X1119600D01*
X1119800Y340000D01*
X1119600Y339800D01*
X1119800D01*
X1120000Y339600D01*
X1034000Y295200D02*
X1034400Y295600D01*
X1034800D01*
X1034400Y296000D01*
X1034800Y296400D01*
X1034400D01*
X1034000Y296800D01*
X1033600Y296400D01*
X1033200D01*
X1033600Y296000D01*
X1033200Y295600D01*
X1033600D01*
X1034000Y295200D01*
Y295600D02*
X1034200Y295800D01*
X1034400D01*
X1034200Y296000D01*
X1034400Y296200D01*
X1034200D01*
X1034000Y296400D01*
X1033800Y296200D01*
X1033600D01*
X1033800Y296000D01*
X1033600Y295800D01*
X1033800D01*
X1034000Y295600D01*
X1077000Y316200D02*
X1077400Y316600D01*
X1077800D01*
X1077400Y317000D01*
X1077800Y317400D01*
X1077400D01*
X1077000Y317800D01*
X1076600Y317400D01*
X1076200D01*
X1076600Y317000D01*
X1076200Y316600D01*
X1076600D01*
X1077000Y316200D01*
Y316600D02*
X1077200Y316800D01*
X1077400D01*
X1077200Y317000D01*
X1077400Y317200D01*
X1077200D01*
X1077000Y317400D01*
X1076800Y317200D01*
X1076600D01*
X1076800Y317000D01*
X1076600Y316800D01*
X1076800D01*
X1077000Y316600D01*
X928000Y294200D02*
X928400Y294600D01*
X928800D01*
X928400Y295000D01*
X928800Y295400D01*
X928400D01*
X928000Y295800D01*
X927600Y295400D01*
X927200D01*
X927600Y295000D01*
X927200Y294600D01*
X927600D01*
X928000Y294200D01*
Y294600D02*
X928200Y294800D01*
X928400D01*
X928200Y295000D01*
X928400Y295200D01*
X928200D01*
X928000Y295400D01*
X927800Y295200D01*
X927600D01*
X927800Y295000D01*
X927600Y294800D01*
X927800D01*
X928000Y294600D01*
X921000Y294200D02*
X921400Y294600D01*
X921800D01*
X921400Y295000D01*
X921800Y295400D01*
X921400D01*
X921000Y295800D01*
X920600Y295400D01*
X920200D01*
X920600Y295000D01*
X920200Y294600D01*
X920600D01*
X921000Y294200D01*
Y294600D02*
X921200Y294800D01*
X921400D01*
X921200Y295000D01*
X921400Y295200D01*
X921200D01*
X921000Y295400D01*
X920800Y295200D01*
X920600D01*
X920800Y295000D01*
X920600Y294800D01*
X920800D01*
X921000Y294600D01*
X928000Y300200D02*
X928400Y300600D01*
X928800D01*
X928400Y301000D01*
X928800Y301400D01*
X928400D01*
X928000Y301800D01*
X927600Y301400D01*
X927200D01*
X927600Y301000D01*
X927200Y300600D01*
X927600D01*
X928000Y300200D01*
Y300600D02*
X928200Y300800D01*
X928400D01*
X928200Y301000D01*
X928400Y301200D01*
X928200D01*
X928000Y301400D01*
X927800Y301200D01*
X927600D01*
X927800Y301000D01*
X927600Y300800D01*
X927800D01*
X928000Y300600D01*
X921000Y300200D02*
X921400Y300600D01*
X921800D01*
X921400Y301000D01*
X921800Y301400D01*
X921400D01*
X921000Y301800D01*
X920600Y301400D01*
X920200D01*
X920600Y301000D01*
X920200Y300600D01*
X920600D01*
X921000Y300200D01*
Y300600D02*
X921200Y300800D01*
X921400D01*
X921200Y301000D01*
X921400Y301200D01*
X921200D01*
X921000Y301400D01*
X920800Y301200D01*
X920600D01*
X920800Y301000D01*
X920600Y300800D01*
X920800D01*
X921000Y300600D01*
X993000Y306200D02*
X993400Y306600D01*
X993800D01*
X993400Y307000D01*
X993800Y307400D01*
X993400D01*
X993000Y307800D01*
X992600Y307400D01*
X992200D01*
X992600Y307000D01*
X992200Y306600D01*
X992600D01*
X993000Y306200D01*
Y306600D02*
X993200Y306800D01*
X993400D01*
X993200Y307000D01*
X993400Y307200D01*
X993200D01*
X993000Y307400D01*
X992800Y307200D01*
X992600D01*
X992800Y307000D01*
X992600Y306800D01*
X992800D01*
X993000Y306600D01*
X982000Y306200D02*
X982400Y306600D01*
X982800D01*
X982400Y307000D01*
X982800Y307400D01*
X982400D01*
X982000Y307800D01*
X981600Y307400D01*
X981200D01*
X981600Y307000D01*
X981200Y306600D01*
X981600D01*
X982000Y306200D01*
Y306600D02*
X982200Y306800D01*
X982400D01*
X982200Y307000D01*
X982400Y307200D01*
X982200D01*
X982000Y307400D01*
X981800Y307200D01*
X981600D01*
X981800Y307000D01*
X981600Y306800D01*
X981800D01*
X982000Y306600D01*
X1001000Y283200D02*
X1001400Y283600D01*
X1001800D01*
X1001400Y284000D01*
X1001800Y284400D01*
X1001400D01*
X1001000Y284800D01*
X1000600Y284400D01*
X1000200D01*
X1000600Y284000D01*
X1000200Y283600D01*
X1000600D01*
X1001000Y283200D01*
Y283600D02*
X1001200Y283800D01*
X1001400D01*
X1001200Y284000D01*
X1001400Y284200D01*
X1001200D01*
X1001000Y284400D01*
X1000800Y284200D01*
X1000600D01*
X1000800Y284000D01*
X1000600Y283800D01*
X1000800D01*
X1001000Y283600D01*
X764000Y378200D02*
X764400Y378600D01*
X764800D01*
X764400Y379000D01*
X764800Y379400D01*
X764400D01*
X764000Y379800D01*
X763600Y379400D01*
X763200D01*
X763600Y379000D01*
X763200Y378600D01*
X763600D01*
X764000Y378200D01*
Y378600D02*
X764200Y378800D01*
X764400D01*
X764200Y379000D01*
X764400Y379200D01*
X764200D01*
X764000Y379400D01*
X763800Y379200D01*
X763600D01*
X763800Y379000D01*
X763600Y378800D01*
X763800D01*
X764000Y378600D01*
X752000Y378200D02*
X752400Y378600D01*
X752800D01*
X752400Y379000D01*
X752800Y379400D01*
X752400D01*
X752000Y379800D01*
X751600Y379400D01*
X751200D01*
X751600Y379000D01*
X751200Y378600D01*
X751600D01*
X752000Y378200D01*
Y378600D02*
X752200Y378800D01*
X752400D01*
X752200Y379000D01*
X752400Y379200D01*
X752200D01*
X752000Y379400D01*
X751800Y379200D01*
X751600D01*
X751800Y379000D01*
X751600Y378800D01*
X751800D01*
X752000Y378600D01*
X776000Y378200D02*
X776400Y378600D01*
X776800D01*
X776400Y379000D01*
X776800Y379400D01*
X776400D01*
X776000Y379800D01*
X775600Y379400D01*
X775200D01*
X775600Y379000D01*
X775200Y378600D01*
X775600D01*
X776000Y378200D01*
Y378600D02*
X776200Y378800D01*
X776400D01*
X776200Y379000D01*
X776400Y379200D01*
X776200D01*
X776000Y379400D01*
X775800Y379200D01*
X775600D01*
X775800Y379000D01*
X775600Y378800D01*
X775800D01*
X776000Y378600D01*
X705000Y346200D02*
X705400Y346600D01*
X705800D01*
X705400Y347000D01*
X705800Y347400D01*
X705400D01*
X705000Y347800D01*
X704600Y347400D01*
X704200D01*
X704600Y347000D01*
X704200Y346600D01*
X704600D01*
X705000Y346200D01*
Y346600D02*
X705200Y346800D01*
X705400D01*
X705200Y347000D01*
X705400Y347200D01*
X705200D01*
X705000Y347400D01*
X704800Y347200D01*
X704600D01*
X704800Y347000D01*
X704600Y346800D01*
X704800D01*
X705000Y346600D01*
X713000Y338200D02*
X713400Y338600D01*
X713800D01*
X713400Y339000D01*
X713800Y339400D01*
X713400D01*
X713000Y339800D01*
X712600Y339400D01*
X712200D01*
X712600Y339000D01*
X712200Y338600D01*
X712600D01*
X713000Y338200D01*
Y338600D02*
X713200Y338800D01*
X713400D01*
X713200Y339000D01*
X713400Y339200D01*
X713200D01*
X713000Y339400D01*
X712800Y339200D01*
X712600D01*
X712800Y339000D01*
X712600Y338800D01*
X712800D01*
X713000Y338600D01*
Y346200D02*
X713400Y346600D01*
X713800D01*
X713400Y347000D01*
X713800Y347400D01*
X713400D01*
X713000Y347800D01*
X712600Y347400D01*
X712200D01*
X712600Y347000D01*
X712200Y346600D01*
X712600D01*
X713000Y346200D01*
Y346600D02*
X713200Y346800D01*
X713400D01*
X713200Y347000D01*
X713400Y347200D01*
X713200D01*
X713000Y347400D01*
X712800Y347200D01*
X712600D01*
X712800Y347000D01*
X712600Y346800D01*
X712800D01*
X713000Y346600D01*
Y354200D02*
X713400Y354600D01*
X713800D01*
X713400Y355000D01*
X713800Y355400D01*
X713400D01*
X713000Y355800D01*
X712600Y355400D01*
X712200D01*
X712600Y355000D01*
X712200Y354600D01*
X712600D01*
X713000Y354200D01*
Y354600D02*
X713200Y354800D01*
X713400D01*
X713200Y355000D01*
X713400Y355200D01*
X713200D01*
X713000Y355400D01*
X712800Y355200D01*
X712600D01*
X712800Y355000D01*
X712600Y354800D01*
X712800D01*
X713000Y354600D01*
X744000Y435200D02*
X744400Y435600D01*
X744800D01*
X744400Y436000D01*
X744800Y436400D01*
X744400D01*
X744000Y436800D01*
X743600Y436400D01*
X743200D01*
X743600Y436000D01*
X743200Y435600D01*
X743600D01*
X744000Y435200D01*
Y435600D02*
X744200Y435800D01*
X744400D01*
X744200Y436000D01*
X744400Y436200D01*
X744200D01*
X744000Y436400D01*
X743800Y436200D01*
X743600D01*
X743800Y436000D01*
X743600Y435800D01*
X743800D01*
X744000Y435600D01*
X727500Y397200D02*
X727900Y397600D01*
X728300D01*
X727900Y398000D01*
X728300Y398400D01*
X727900D01*
X727500Y398800D01*
X727100Y398400D01*
X726700D01*
X727100Y398000D01*
X726700Y397600D01*
X727100D01*
X727500Y397200D01*
Y397600D02*
X727700Y397800D01*
X727900D01*
X727700Y398000D01*
X727900Y398200D01*
X727700D01*
X727500Y398400D01*
X727300Y398200D01*
X727100D01*
X727300Y398000D01*
X727100Y397800D01*
X727300D01*
X727500Y397600D01*
X738000Y337200D02*
X738400Y337600D01*
X738800D01*
X738400Y338000D01*
X738800Y338400D01*
X738400D01*
X738000Y338800D01*
X737600Y338400D01*
X737200D01*
X737600Y338000D01*
X737200Y337600D01*
X737600D01*
X738000Y337200D01*
Y337600D02*
X738200Y337800D01*
X738400D01*
X738200Y338000D01*
X738400Y338200D01*
X738200D01*
X738000Y338400D01*
X737800Y338200D01*
X737600D01*
X737800Y338000D01*
X737600Y337800D01*
X737800D01*
X738000Y337600D01*
X844500Y393700D02*
X844900Y394100D01*
X845300D01*
X844900Y394500D01*
X845300Y394900D01*
X844900D01*
X844500Y395300D01*
X844100Y394900D01*
X843700D01*
X844100Y394500D01*
X843700Y394100D01*
X844100D01*
X844500Y393700D01*
Y394100D02*
X844700Y394300D01*
X844900D01*
X844700Y394500D01*
X844900Y394700D01*
X844700D01*
X844500Y394900D01*
X844300Y394700D01*
X844100D01*
X844300Y394500D01*
X844100Y394300D01*
X844300D01*
X844500Y394100D01*
X757000Y304700D02*
X757400Y305100D01*
X757800D01*
X757400Y305500D01*
X757800Y305900D01*
X757400D01*
X757000Y306300D01*
X756600Y305900D01*
X756200D01*
X756600Y305500D01*
X756200Y305100D01*
X756600D01*
X757000Y304700D01*
Y305100D02*
X757200Y305300D01*
X757400D01*
X757200Y305500D01*
X757400Y305700D01*
X757200D01*
X757000Y305900D01*
X756800Y305700D01*
X756600D01*
X756800Y305500D01*
X756600Y305300D01*
X756800D01*
X757000Y305100D01*
X648000Y378200D02*
X648400Y378600D01*
X648800D01*
X648400Y379000D01*
X648800Y379400D01*
X648400D01*
X648000Y379800D01*
X647600Y379400D01*
X647200D01*
X647600Y379000D01*
X647200Y378600D01*
X647600D01*
X648000Y378200D01*
Y378600D02*
X648200Y378800D01*
X648400D01*
X648200Y379000D01*
X648400Y379200D01*
X648200D01*
X648000Y379400D01*
X647800Y379200D01*
X647600D01*
X647800Y379000D01*
X647600Y378800D01*
X647800D01*
X648000Y378600D01*
X715500Y383200D02*
X715900Y383600D01*
X716300D01*
X715900Y384000D01*
X716300Y384400D01*
X715900D01*
X715500Y384800D01*
X715100Y384400D01*
X714700D01*
X715100Y384000D01*
X714700Y383600D01*
X715100D01*
X715500Y383200D01*
Y383600D02*
X715700Y383800D01*
X715900D01*
X715700Y384000D01*
X715900Y384200D01*
X715700D01*
X715500Y384400D01*
X715300Y384200D01*
X715100D01*
X715300Y384000D01*
X715100Y383800D01*
X715300D01*
X715500Y383600D01*
Y369700D02*
X715900Y370100D01*
X716300D01*
X715900Y370500D01*
X716300Y370900D01*
X715900D01*
X715500Y371300D01*
X715100Y370900D01*
X714700D01*
X715100Y370500D01*
X714700Y370100D01*
X715100D01*
X715500Y369700D01*
Y370100D02*
X715700Y370300D01*
X715900D01*
X715700Y370500D01*
X715900Y370700D01*
X715700D01*
X715500Y370900D01*
X715300Y370700D01*
X715100D01*
X715300Y370500D01*
X715100Y370300D01*
X715300D01*
X715500Y370100D01*
X720000Y375700D02*
X720400Y376100D01*
X720800D01*
X720400Y376500D01*
X720800Y376900D01*
X720400D01*
X720000Y377300D01*
X719600Y376900D01*
X719200D01*
X719600Y376500D01*
X719200Y376100D01*
X719600D01*
X720000Y375700D01*
Y376100D02*
X720200Y376300D01*
X720400D01*
X720200Y376500D01*
X720400Y376700D01*
X720200D01*
X720000Y376900D01*
X719800Y376700D01*
X719600D01*
X719800Y376500D01*
X719600Y376300D01*
X719800D01*
X720000Y376100D01*
X704000Y385200D02*
X704400Y385600D01*
X704800D01*
X704400Y386000D01*
X704800Y386400D01*
X704400D01*
X704000Y386800D01*
X703600Y386400D01*
X703200D01*
X703600Y386000D01*
X703200Y385600D01*
X703600D01*
X704000Y385200D01*
Y385600D02*
X704200Y385800D01*
X704400D01*
X704200Y386000D01*
X704400Y386200D01*
X704200D01*
X704000Y386400D01*
X703800Y386200D01*
X703600D01*
X703800Y386000D01*
X703600Y385800D01*
X703800D01*
X704000Y385600D01*
X699500Y372200D02*
X699900Y372600D01*
X700300D01*
X699900Y373000D01*
X700300Y373400D01*
X699900D01*
X699500Y373800D01*
X699100Y373400D01*
X698700D01*
X699100Y373000D01*
X698700Y372600D01*
X699100D01*
X699500Y372200D01*
Y372600D02*
X699700Y372800D01*
X699900D01*
X699700Y373000D01*
X699900Y373200D01*
X699700D01*
X699500Y373400D01*
X699300Y373200D01*
X699100D01*
X699300Y373000D01*
X699100Y372800D01*
X699300D01*
X699500Y372600D01*
X710500Y389200D02*
X710900Y389600D01*
X711300D01*
X710900Y390000D01*
X711300Y390400D01*
X710900D01*
X710500Y390800D01*
X710100Y390400D01*
X709700D01*
X710100Y390000D01*
X709700Y389600D01*
X710100D01*
X710500Y389200D01*
Y389600D02*
X710700Y389800D01*
X710900D01*
X710700Y390000D01*
X710900Y390200D01*
X710700D01*
X710500Y390400D01*
X710300Y390200D01*
X710100D01*
X710300Y390000D01*
X710100Y389800D01*
X710300D01*
X710500Y389600D01*
X748500Y264700D02*
X748900Y265100D01*
X749300D01*
X748900Y265500D01*
X749300Y265900D01*
X748900D01*
X748500Y266300D01*
X748100Y265900D01*
X747700D01*
X748100Y265500D01*
X747700Y265100D01*
X748100D01*
X748500Y264700D01*
Y265100D02*
X748700Y265300D01*
X748900D01*
X748700Y265500D01*
X748900Y265700D01*
X748700D01*
X748500Y265900D01*
X748300Y265700D01*
X748100D01*
X748300Y265500D01*
X748100Y265300D01*
X748300D01*
X748500Y265100D01*
X732500Y319200D02*
X732900Y319600D01*
X733300D01*
X732900Y320000D01*
X733300Y320400D01*
X732900D01*
X732500Y320800D01*
X732100Y320400D01*
X731700D01*
X732100Y320000D01*
X731700Y319600D01*
X732100D01*
X732500Y319200D01*
Y319600D02*
X732700Y319800D01*
X732900D01*
X732700Y320000D01*
X732900Y320200D01*
X732700D01*
X732500Y320400D01*
X732300Y320200D01*
X732100D01*
X732300Y320000D01*
X732100Y319800D01*
X732300D01*
X732500Y319600D01*
X737500Y310700D02*
X737900Y311100D01*
X738300D01*
X737900Y311500D01*
X738300Y311900D01*
X737900D01*
X737500Y312300D01*
X737100Y311900D01*
X736700D01*
X737100Y311500D01*
X736700Y311100D01*
X737100D01*
X737500Y310700D01*
Y311100D02*
X737700Y311300D01*
X737900D01*
X737700Y311500D01*
X737900Y311700D01*
X737700D01*
X737500Y311900D01*
X737300Y311700D01*
X737100D01*
X737300Y311500D01*
X737100Y311300D01*
X737300D01*
X737500Y311100D01*
X736000Y262700D02*
X736400Y263100D01*
X736800D01*
X736400Y263500D01*
X736800Y263900D01*
X736400D01*
X736000Y264300D01*
X735600Y263900D01*
X735200D01*
X735600Y263500D01*
X735200Y263100D01*
X735600D01*
X736000Y262700D01*
Y263100D02*
X736200Y263300D01*
X736400D01*
X736200Y263500D01*
X736400Y263700D01*
X736200D01*
X736000Y263900D01*
X735800Y263700D01*
X735600D01*
X735800Y263500D01*
X735600Y263300D01*
X735800D01*
X736000Y263100D01*
X706000Y308200D02*
X706400Y308600D01*
X706800D01*
X706400Y309000D01*
X706800Y309400D01*
X706400D01*
X706000Y309800D01*
X705600Y309400D01*
X705200D01*
X705600Y309000D01*
X705200Y308600D01*
X705600D01*
X706000Y308200D01*
Y308600D02*
X706200Y308800D01*
X706400D01*
X706200Y309000D01*
X706400Y309200D01*
X706200D01*
X706000Y309400D01*
X705800Y309200D01*
X705600D01*
X705800Y309000D01*
X705600Y308800D01*
X705800D01*
X706000Y308600D01*
Y317700D02*
X706400Y318100D01*
X706800D01*
X706400Y318500D01*
X706800Y318900D01*
X706400D01*
X706000Y319300D01*
X705600Y318900D01*
X705200D01*
X705600Y318500D01*
X705200Y318100D01*
X705600D01*
X706000Y317700D01*
Y318100D02*
X706200Y318300D01*
X706400D01*
X706200Y318500D01*
X706400Y318700D01*
X706200D01*
X706000Y318900D01*
X705800Y318700D01*
X705600D01*
X705800Y318500D01*
X705600Y318300D01*
X705800D01*
X706000Y318100D01*
X727000Y305200D02*
X727400Y305600D01*
X727800D01*
X727400Y306000D01*
X727800Y306400D01*
X727400D01*
X727000Y306800D01*
X726600Y306400D01*
X726200D01*
X726600Y306000D01*
X726200Y305600D01*
X726600D01*
X727000Y305200D01*
Y305600D02*
X727200Y305800D01*
X727400D01*
X727200Y306000D01*
X727400Y306200D01*
X727200D01*
X727000Y306400D01*
X726800Y306200D01*
X726600D01*
X726800Y306000D01*
X726600Y305800D01*
X726800D01*
X727000Y305600D01*
X715518Y419718D02*
X715918Y420118D01*
X716318D01*
X715918Y420518D01*
X716318Y420918D01*
X715918D01*
X715518Y421318D01*
X715118Y420918D01*
X714718D01*
X715118Y420518D01*
X714718Y420118D01*
X715118D01*
X715518Y419718D01*
Y420118D02*
X715718Y420318D01*
X715918D01*
X715718Y420518D01*
X715918Y420718D01*
X715718D01*
X715518Y420918D01*
X715318Y420718D01*
X715118D01*
X715318Y420518D01*
X715118Y420318D01*
X715318D01*
X715518Y420118D01*
X662500Y424700D02*
X662900Y425100D01*
X663300D01*
X662900Y425500D01*
X663300Y425900D01*
X662900D01*
X662500Y426300D01*
X662100Y425900D01*
X661700D01*
X662100Y425500D01*
X661700Y425100D01*
X662100D01*
X662500Y424700D01*
Y425100D02*
X662700Y425300D01*
X662900D01*
X662700Y425500D01*
X662900Y425700D01*
X662700D01*
X662500Y425900D01*
X662300Y425700D01*
X662100D01*
X662300Y425500D01*
X662100Y425300D01*
X662300D01*
X662500Y425100D01*
X708000Y405700D02*
X708400Y406100D01*
X708800D01*
X708400Y406500D01*
X708800Y406900D01*
X708400D01*
X708000Y407300D01*
X707600Y406900D01*
X707200D01*
X707600Y406500D01*
X707200Y406100D01*
X707600D01*
X708000Y405700D01*
Y406100D02*
X708200Y406300D01*
X708400D01*
X708200Y406500D01*
X708400Y406700D01*
X708200D01*
X708000Y406900D01*
X707800Y406700D01*
X707600D01*
X707800Y406500D01*
X707600Y406300D01*
X707800D01*
X708000Y406100D01*
X623000Y381200D02*
X623400Y381600D01*
X623800D01*
X623400Y382000D01*
X623800Y382400D01*
X623400D01*
X623000Y382800D01*
X622600Y382400D01*
X622200D01*
X622600Y382000D01*
X622200Y381600D01*
X622600D01*
X623000Y381200D01*
Y381600D02*
X623200Y381800D01*
X623400D01*
X623200Y382000D01*
X623400Y382200D01*
X623200D01*
X623000Y382400D01*
X622800Y382200D01*
X622600D01*
X622800Y382000D01*
X622600Y381800D01*
X622800D01*
X623000Y381600D01*
X641000Y386700D02*
X641400Y387100D01*
X641800D01*
X641400Y387500D01*
X641800Y387900D01*
X641400D01*
X641000Y388300D01*
X640600Y387900D01*
X640200D01*
X640600Y387500D01*
X640200Y387100D01*
X640600D01*
X641000Y386700D01*
Y387100D02*
X641200Y387300D01*
X641400D01*
X641200Y387500D01*
X641400Y387700D01*
X641200D01*
X641000Y387900D01*
X640800Y387700D01*
X640600D01*
X640800Y387500D01*
X640600Y387300D01*
X640800D01*
X641000Y387100D01*
X699715Y294901D02*
X700115Y295301D01*
X700515D01*
X700115Y295701D01*
X700515Y296101D01*
X700115D01*
X699715Y296501D01*
X699315Y296101D01*
X698915D01*
X699315Y295701D01*
X698915Y295301D01*
X699315D01*
X699715Y294901D01*
Y295301D02*
X699915Y295501D01*
X700115D01*
X699915Y295701D01*
X700115Y295901D01*
X699915D01*
X699715Y296101D01*
X699515Y295901D01*
X699315D01*
X699515Y295701D01*
X699315Y295501D01*
X699515D01*
X699715Y295301D01*
X642000Y295700D02*
X642400Y296100D01*
X642800D01*
X642400Y296500D01*
X642800Y296900D01*
X642400D01*
X642000Y297300D01*
X641600Y296900D01*
X641200D01*
X641600Y296500D01*
X641200Y296100D01*
X641600D01*
X642000Y295700D01*
Y296100D02*
X642200Y296300D01*
X642400D01*
X642200Y296500D01*
X642400Y296700D01*
X642200D01*
X642000Y296900D01*
X641800Y296700D01*
X641600D01*
X641800Y296500D01*
X641600Y296300D01*
X641800D01*
X642000Y296100D01*
X665000Y398700D02*
X665400Y399100D01*
X665800D01*
X665400Y399500D01*
X665800Y399900D01*
X665400D01*
X665000Y400300D01*
X664600Y399900D01*
X664200D01*
X664600Y399500D01*
X664200Y399100D01*
X664600D01*
X665000Y398700D01*
Y399100D02*
X665200Y399300D01*
X665400D01*
X665200Y399500D01*
X665400Y399700D01*
X665200D01*
X665000Y399900D01*
X664800Y399700D01*
X664600D01*
X664800Y399500D01*
X664600Y399300D01*
X664800D01*
X665000Y399100D01*
X728000Y375700D02*
X728400Y376100D01*
X728800D01*
X728400Y376500D01*
X728800Y376900D01*
X728400D01*
X728000Y377300D01*
X727600Y376900D01*
X727200D01*
X727600Y376500D01*
X727200Y376100D01*
X727600D01*
X728000Y375700D01*
Y376100D02*
X728200Y376300D01*
X728400D01*
X728200Y376500D01*
X728400Y376700D01*
X728200D01*
X728000Y376900D01*
X727800Y376700D01*
X727600D01*
X727800Y376500D01*
X727600Y376300D01*
X727800D01*
X728000Y376100D01*
X670500Y416200D02*
X670900Y416600D01*
X671300D01*
X670900Y417000D01*
X671300Y417400D01*
X670900D01*
X670500Y417800D01*
X670100Y417400D01*
X669700D01*
X670100Y417000D01*
X669700Y416600D01*
X670100D01*
X670500Y416200D01*
Y416600D02*
X670700Y416800D01*
X670900D01*
X670700Y417000D01*
X670900Y417200D01*
X670700D01*
X670500Y417400D01*
X670300Y417200D01*
X670100D01*
X670300Y417000D01*
X670100Y416800D01*
X670300D01*
X670500Y416600D01*
X713000Y518200D02*
X713400Y518600D01*
X713800D01*
X713400Y519000D01*
X713800Y519400D01*
X713400D01*
X713000Y519800D01*
X712600Y519400D01*
X712200D01*
X712600Y519000D01*
X712200Y518600D01*
X712600D01*
X713000Y518200D01*
Y518600D02*
X713200Y518800D01*
X713400D01*
X713200Y519000D01*
X713400Y519200D01*
X713200D01*
X713000Y519400D01*
X712800Y519200D01*
X712600D01*
X712800Y519000D01*
X712600Y518800D01*
X712800D01*
X713000Y518600D01*
X713500Y288700D02*
X713900Y289100D01*
X714300D01*
X713900Y289500D01*
X714300Y289900D01*
X713900D01*
X713500Y290300D01*
X713100Y289900D01*
X712700D01*
X713100Y289500D01*
X712700Y289100D01*
X713100D01*
X713500Y288700D01*
Y289100D02*
X713700Y289300D01*
X713900D01*
X713700Y289500D01*
X713900Y289700D01*
X713700D01*
X713500Y289900D01*
X713300Y289700D01*
X713100D01*
X713300Y289500D01*
X713100Y289300D01*
X713300D01*
X713500Y289100D01*
X777779Y463788D02*
X778179Y464188D01*
X778579D01*
X778179Y464588D01*
X778579Y464988D01*
X778179D01*
X777779Y465388D01*
X777379Y464988D01*
X776979D01*
X777379Y464588D01*
X776979Y464188D01*
X777379D01*
X777779Y463788D01*
Y464188D02*
X777979Y464388D01*
X778179D01*
X777979Y464588D01*
X778179Y464788D01*
X777979D01*
X777779Y464988D01*
X777579Y464788D01*
X777379D01*
X777579Y464588D01*
X777379Y464388D01*
X777579D01*
X777779Y464188D01*
X800500Y344200D02*
X800900Y344600D01*
X801300D01*
X800900Y345000D01*
X801300Y345400D01*
X800900D01*
X800500Y345800D01*
X800100Y345400D01*
X799700D01*
X800100Y345000D01*
X799700Y344600D01*
X800100D01*
X800500Y344200D01*
Y344600D02*
X800700Y344800D01*
X800900D01*
X800700Y345000D01*
X800900Y345200D01*
X800700D01*
X800500Y345400D01*
X800300Y345200D01*
X800100D01*
X800300Y345000D01*
X800100Y344800D01*
X800300D01*
X800500Y344600D01*
X781000Y354700D02*
X781400Y355100D01*
X781800D01*
X781400Y355500D01*
X781800Y355900D01*
X781400D01*
X781000Y356300D01*
X780600Y355900D01*
X780200D01*
X780600Y355500D01*
X780200Y355100D01*
X780600D01*
X781000Y354700D01*
Y355100D02*
X781200Y355300D01*
X781400D01*
X781200Y355500D01*
X781400Y355700D01*
X781200D01*
X781000Y355900D01*
X780800Y355700D01*
X780600D01*
X780800Y355500D01*
X780600Y355300D01*
X780800D01*
X781000Y355100D01*
X774000Y315200D02*
X774400Y315600D01*
X774800D01*
X774400Y316000D01*
X774800Y316400D01*
X774400D01*
X774000Y316800D01*
X773600Y316400D01*
X773200D01*
X773600Y316000D01*
X773200Y315600D01*
X773600D01*
X774000Y315200D01*
Y315600D02*
X774200Y315800D01*
X774400D01*
X774200Y316000D01*
X774400Y316200D01*
X774200D01*
X774000Y316400D01*
X773800Y316200D01*
X773600D01*
X773800Y316000D01*
X773600Y315800D01*
X773800D01*
X774000Y315600D01*
X713500Y302700D02*
X713900Y303100D01*
X714300D01*
X713900Y303500D01*
X714300Y303900D01*
X713900D01*
X713500Y304300D01*
X713100Y303900D01*
X712700D01*
X713100Y303500D01*
X712700Y303100D01*
X713100D01*
X713500Y302700D01*
Y303100D02*
X713700Y303300D01*
X713900D01*
X713700Y303500D01*
X713900Y303700D01*
X713700D01*
X713500Y303900D01*
X713300Y303700D01*
X713100D01*
X713300Y303500D01*
X713100Y303300D01*
X713300D01*
X713500Y303100D01*
X858500Y367200D02*
X858900Y367600D01*
X859300D01*
X858900Y368000D01*
X859300Y368400D01*
X858900D01*
X858500Y368800D01*
X858100Y368400D01*
X857700D01*
X858100Y368000D01*
X857700Y367600D01*
X858100D01*
X858500Y367200D01*
Y367600D02*
X858700Y367800D01*
X858900D01*
X858700Y368000D01*
X858900Y368200D01*
X858700D01*
X858500Y368400D01*
X858300Y368200D01*
X858100D01*
X858300Y368000D01*
X858100Y367800D01*
X858300D01*
X858500Y367600D01*
X799500Y470200D02*
X799900Y470600D01*
X800300D01*
X799900Y471000D01*
X800300Y471400D01*
X799900D01*
X799500Y471800D01*
X799100Y471400D01*
X798700D01*
X799100Y471000D01*
X798700Y470600D01*
X799100D01*
X799500Y470200D01*
Y470600D02*
X799700Y470800D01*
X799900D01*
X799700Y471000D01*
X799900Y471200D01*
X799700D01*
X799500Y471400D01*
X799300Y471200D01*
X799100D01*
X799300Y471000D01*
X799100Y470800D01*
X799300D01*
X799500Y470600D01*
X662500Y348200D02*
X662900Y348600D01*
X663300D01*
X662900Y349000D01*
X663300Y349400D01*
X662900D01*
X662500Y349800D01*
X662100Y349400D01*
X661700D01*
X662100Y349000D01*
X661700Y348600D01*
X662100D01*
X662500Y348200D01*
Y348600D02*
X662700Y348800D01*
X662900D01*
X662700Y349000D01*
X662900Y349200D01*
X662700D01*
X662500Y349400D01*
X662300Y349200D01*
X662100D01*
X662300Y349000D01*
X662100Y348800D01*
X662300D01*
X662500Y348600D01*
X850500Y341700D02*
X850900Y342100D01*
X851300D01*
X850900Y342500D01*
X851300Y342900D01*
X850900D01*
X850500Y343300D01*
X850100Y342900D01*
X849700D01*
X850100Y342500D01*
X849700Y342100D01*
X850100D01*
X850500Y341700D01*
Y342100D02*
X850700Y342300D01*
X850900D01*
X850700Y342500D01*
X850900Y342700D01*
X850700D01*
X850500Y342900D01*
X850300Y342700D01*
X850100D01*
X850300Y342500D01*
X850100Y342300D01*
X850300D01*
X850500Y342100D01*
X827000Y373700D02*
X827400Y374100D01*
X827800D01*
X827400Y374500D01*
X827800Y374900D01*
X827400D01*
X827000Y375300D01*
X826600Y374900D01*
X826200D01*
X826600Y374500D01*
X826200Y374100D01*
X826600D01*
X827000Y373700D01*
Y374100D02*
X827200Y374300D01*
X827400D01*
X827200Y374500D01*
X827400Y374700D01*
X827200D01*
X827000Y374900D01*
X826800Y374700D01*
X826600D01*
X826800Y374500D01*
X826600Y374300D01*
X826800D01*
X827000Y374100D01*
X785500Y423200D02*
X785900Y423600D01*
X786300D01*
X785900Y424000D01*
X786300Y424400D01*
X785900D01*
X785500Y424800D01*
X785100Y424400D01*
X784700D01*
X785100Y424000D01*
X784700Y423600D01*
X785100D01*
X785500Y423200D01*
Y423600D02*
X785700Y423800D01*
X785900D01*
X785700Y424000D01*
X785900Y424200D01*
X785700D01*
X785500Y424400D01*
X785300Y424200D01*
X785100D01*
X785300Y424000D01*
X785100Y423800D01*
X785300D01*
X785500Y423600D01*
X837000Y388200D02*
X837400Y388600D01*
X837800D01*
X837400Y389000D01*
X837800Y389400D01*
X837400D01*
X837000Y389800D01*
X836600Y389400D01*
X836200D01*
X836600Y389000D01*
X836200Y388600D01*
X836600D01*
X837000Y388200D01*
Y388600D02*
X837200Y388800D01*
X837400D01*
X837200Y389000D01*
X837400Y389200D01*
X837200D01*
X837000Y389400D01*
X836800Y389200D01*
X836600D01*
X836800Y389000D01*
X836600Y388800D01*
X836800D01*
X837000Y388600D01*
X825000Y427200D02*
X825400Y427600D01*
X825800D01*
X825400Y428000D01*
X825800Y428400D01*
X825400D01*
X825000Y428800D01*
X824600Y428400D01*
X824200D01*
X824600Y428000D01*
X824200Y427600D01*
X824600D01*
X825000Y427200D01*
Y427600D02*
X825200Y427800D01*
X825400D01*
X825200Y428000D01*
X825400Y428200D01*
X825200D01*
X825000Y428400D01*
X824800Y428200D01*
X824600D01*
X824800Y428000D01*
X824600Y427800D01*
X824800D01*
X825000Y427600D01*
X686500Y334700D02*
X686900Y335100D01*
X687300D01*
X686900Y335500D01*
X687300Y335900D01*
X686900D01*
X686500Y336300D01*
X686100Y335900D01*
X685700D01*
X686100Y335500D01*
X685700Y335100D01*
X686100D01*
X686500Y334700D01*
Y335100D02*
X686700Y335300D01*
X686900D01*
X686700Y335500D01*
X686900Y335700D01*
X686700D01*
X686500Y335900D01*
X686300Y335700D01*
X686100D01*
X686300Y335500D01*
X686100Y335300D01*
X686300D01*
X686500Y335100D01*
X672000Y362200D02*
X672400Y362600D01*
X672800D01*
X672400Y363000D01*
X672800Y363400D01*
X672400D01*
X672000Y363800D01*
X671600Y363400D01*
X671200D01*
X671600Y363000D01*
X671200Y362600D01*
X671600D01*
X672000Y362200D01*
Y362600D02*
X672200Y362800D01*
X672400D01*
X672200Y363000D01*
X672400Y363200D01*
X672200D01*
X672000Y363400D01*
X671800Y363200D01*
X671600D01*
X671800Y363000D01*
X671600Y362800D01*
X671800D01*
X672000Y362600D01*
X615500Y314200D02*
X615900Y314600D01*
X616300D01*
X615900Y315000D01*
X616300Y315400D01*
X615900D01*
X615500Y315800D01*
X615100Y315400D01*
X614700D01*
X615100Y315000D01*
X614700Y314600D01*
X615100D01*
X615500Y314200D01*
Y314600D02*
X615700Y314800D01*
X615900D01*
X615700Y315000D01*
X615900Y315200D01*
X615700D01*
X615500Y315400D01*
X615300Y315200D01*
X615100D01*
X615300Y315000D01*
X615100Y314800D01*
X615300D01*
X615500Y314600D01*
X683500Y327700D02*
X683900Y328100D01*
X684300D01*
X683900Y328500D01*
X684300Y328900D01*
X683900D01*
X683500Y329300D01*
X683100Y328900D01*
X682700D01*
X683100Y328500D01*
X682700Y328100D01*
X683100D01*
X683500Y327700D01*
Y328100D02*
X683700Y328300D01*
X683900D01*
X683700Y328500D01*
X683900Y328700D01*
X683700D01*
X683500Y328900D01*
X683300Y328700D01*
X683100D01*
X683300Y328500D01*
X683100Y328300D01*
X683300D01*
X683500Y328100D01*
X666000Y331200D02*
X666400Y331600D01*
X666800D01*
X666400Y332000D01*
X666800Y332400D01*
X666400D01*
X666000Y332800D01*
X665600Y332400D01*
X665200D01*
X665600Y332000D01*
X665200Y331600D01*
X665600D01*
X666000Y331200D01*
Y331600D02*
X666200Y331800D01*
X666400D01*
X666200Y332000D01*
X666400Y332200D01*
X666200D01*
X666000Y332400D01*
X665800Y332200D01*
X665600D01*
X665800Y332000D01*
X665600Y331800D01*
X665800D01*
X666000Y331600D01*
X651000Y287200D02*
X651400Y287600D01*
X651800D01*
X651400Y288000D01*
X651800Y288400D01*
X651400D01*
X651000Y288800D01*
X650600Y288400D01*
X650200D01*
X650600Y288000D01*
X650200Y287600D01*
X650600D01*
X651000Y287200D01*
Y287600D02*
X651200Y287800D01*
X651400D01*
X651200Y288000D01*
X651400Y288200D01*
X651200D01*
X651000Y288400D01*
X650800Y288200D01*
X650600D01*
X650800Y288000D01*
X650600Y287800D01*
X650800D01*
X651000Y287600D01*
X668000Y316700D02*
X668400Y317100D01*
X668800D01*
X668400Y317500D01*
X668800Y317900D01*
X668400D01*
X668000Y318300D01*
X667600Y317900D01*
X667200D01*
X667600Y317500D01*
X667200Y317100D01*
X667600D01*
X668000Y316700D01*
Y317100D02*
X668200Y317300D01*
X668400D01*
X668200Y317500D01*
X668400Y317700D01*
X668200D01*
X668000Y317900D01*
X667800Y317700D01*
X667600D01*
X667800Y317500D01*
X667600Y317300D01*
X667800D01*
X668000Y317100D01*
X692000Y322700D02*
X692400Y323100D01*
X692800D01*
X692400Y323500D01*
X692800Y323900D01*
X692400D01*
X692000Y324300D01*
X691600Y323900D01*
X691200D01*
X691600Y323500D01*
X691200Y323100D01*
X691600D01*
X692000Y322700D01*
Y323100D02*
X692200Y323300D01*
X692400D01*
X692200Y323500D01*
X692400Y323700D01*
X692200D01*
X692000Y323900D01*
X691800Y323700D01*
X691600D01*
X691800Y323500D01*
X691600Y323300D01*
X691800D01*
X692000Y323100D01*
X662000Y291700D02*
X662400Y292100D01*
X662800D01*
X662400Y292500D01*
X662800Y292900D01*
X662400D01*
X662000Y293300D01*
X661600Y292900D01*
X661200D01*
X661600Y292500D01*
X661200Y292100D01*
X661600D01*
X662000Y291700D01*
Y292100D02*
X662200Y292300D01*
X662400D01*
X662200Y292500D01*
X662400Y292700D01*
X662200D01*
X662000Y292900D01*
X661800Y292700D01*
X661600D01*
X661800Y292500D01*
X661600Y292300D01*
X661800D01*
X662000Y292100D01*
X743000Y485700D02*
X743400Y486100D01*
X743800D01*
X743400Y486500D01*
X743800Y486900D01*
X743400D01*
X743000Y487300D01*
X742600Y486900D01*
X742200D01*
X742600Y486500D01*
X742200Y486100D01*
X742600D01*
X743000Y485700D01*
Y486100D02*
X743200Y486300D01*
X743400D01*
X743200Y486500D01*
X743400Y486700D01*
X743200D01*
X743000Y486900D01*
X742800Y486700D01*
X742600D01*
X742800Y486500D01*
X742600Y486300D01*
X742800D01*
X743000Y486100D01*
X738000Y375700D02*
X738400Y376100D01*
X738800D01*
X738400Y376500D01*
X738800Y376900D01*
X738400D01*
X738000Y377300D01*
X737600Y376900D01*
X737200D01*
X737600Y376500D01*
X737200Y376100D01*
X737600D01*
X738000Y375700D01*
Y376100D02*
X738200Y376300D01*
X738400D01*
X738200Y376500D01*
X738400Y376700D01*
X738200D01*
X738000Y376900D01*
X737800Y376700D01*
X737600D01*
X737800Y376500D01*
X737600Y376300D01*
X737800D01*
X738000Y376100D01*
X677500Y372700D02*
X677900Y373100D01*
X678300D01*
X677900Y373500D01*
X678300Y373900D01*
X677900D01*
X677500Y374300D01*
X677100Y373900D01*
X676700D01*
X677100Y373500D01*
X676700Y373100D01*
X677100D01*
X677500Y372700D01*
Y373100D02*
X677700Y373300D01*
X677900D01*
X677700Y373500D01*
X677900Y373700D01*
X677700D01*
X677500Y373900D01*
X677300Y373700D01*
X677100D01*
X677300Y373500D01*
X677100Y373300D01*
X677300D01*
X677500Y373100D01*
X1067500Y526200D02*
X1067900Y526600D01*
X1068300D01*
X1067900Y527000D01*
X1068300Y527400D01*
X1067900D01*
X1067500Y527800D01*
X1067100Y527400D01*
X1066700D01*
X1067100Y527000D01*
X1066700Y526600D01*
X1067100D01*
X1067500Y526200D01*
Y526600D02*
X1067700Y526800D01*
X1067900D01*
X1067700Y527000D01*
X1067900Y527200D01*
X1067700D01*
X1067500Y527400D01*
X1067300Y527200D01*
X1067100D01*
X1067300Y527000D01*
X1067100Y526800D01*
X1067300D01*
X1067500Y526600D01*
X732000Y546200D02*
X732400Y546600D01*
X732800D01*
X732400Y547000D01*
X732800Y547400D01*
X732400D01*
X732000Y547800D01*
X731600Y547400D01*
X731200D01*
X731600Y547000D01*
X731200Y546600D01*
X731600D01*
X732000Y546200D01*
Y546600D02*
X732200Y546800D01*
X732400D01*
X732200Y547000D01*
X732400Y547200D01*
X732200D01*
X732000Y547400D01*
X731800Y547200D01*
X731600D01*
X731800Y547000D01*
X731600Y546800D01*
X731800D01*
X732000Y546600D01*
X625000Y481200D02*
X625400Y481600D01*
X625800D01*
X625400Y482000D01*
X625800Y482400D01*
X625400D01*
X625000Y482800D01*
X624600Y482400D01*
X624200D01*
X624600Y482000D01*
X624200Y481600D01*
X624600D01*
X625000Y481200D01*
Y481600D02*
X625200Y481800D01*
X625400D01*
X625200Y482000D01*
X625400Y482200D01*
X625200D01*
X625000Y482400D01*
X624800Y482200D01*
X624600D01*
X624800Y482000D01*
X624600Y481800D01*
X624800D01*
X625000Y481600D01*
X627500Y543700D02*
X627900Y544100D01*
X628300D01*
X627900Y544500D01*
X628300Y544900D01*
X627900D01*
X627500Y545300D01*
X627100Y544900D01*
X626700D01*
X627100Y544500D01*
X626700Y544100D01*
X627100D01*
X627500Y543700D01*
Y544100D02*
X627700Y544300D01*
X627900D01*
X627700Y544500D01*
X627900Y544700D01*
X627700D01*
X627500Y544900D01*
X627300Y544700D01*
X627100D01*
X627300Y544500D01*
X627100Y544300D01*
X627300D01*
X627500Y544100D01*
X967500Y286200D02*
X967900Y286600D01*
X968300D01*
X967900Y287000D01*
X968300Y287400D01*
X967900D01*
X967500Y287800D01*
X967100Y287400D01*
X966700D01*
X967100Y287000D01*
X966700Y286600D01*
X967100D01*
X967500Y286200D01*
Y286600D02*
X967700Y286800D01*
X967900D01*
X967700Y287000D01*
X967900Y287200D01*
X967700D01*
X967500Y287400D01*
X967300Y287200D01*
X967100D01*
X967300Y287000D01*
X967100Y286800D01*
X967300D01*
X967500Y286600D01*
D109*
X631000Y275000D02*
G03*
X631000Y275000I-800J0D01*
G01*
X1169500D02*
G03*
X1169500Y275000I-800J0D01*
G01*
Y575100D02*
G03*
X1169500Y575100I-800J0D01*
G01*
X631000D02*
G03*
X631000Y575100I-800J0D01*
G01*
X1135100Y491800D02*
G03*
X1135100Y491800I-800J0D01*
G01*
X1145100D02*
G03*
X1145100Y491800I-800J0D01*
G01*
X1155100D02*
G03*
X1155100Y491800I-800J0D01*
G01*
X1165100D02*
G03*
X1165100Y491800I-800J0D01*
G01*
Y501800D02*
G03*
X1165100Y501800I-800J0D01*
G01*
X1155100D02*
G03*
X1155100Y501800I-800J0D01*
G01*
X1145100D02*
G03*
X1145100Y501800I-800J0D01*
G01*
X1135100D02*
G03*
X1135100Y501800I-800J0D01*
G01*
D110*
X1134700Y491800D02*
G03*
X1134700Y491800I-400J0D01*
G01*
X1144700D02*
G03*
X1144700Y491800I-400J0D01*
G01*
X1154700D02*
G03*
X1154700Y491800I-400J0D01*
G01*
X1164700D02*
G03*
X1164700Y491800I-400J0D01*
G01*
Y501800D02*
G03*
X1164700Y501800I-400J0D01*
G01*
X1154700D02*
G03*
X1154700Y501800I-400J0D01*
G01*
X1144700D02*
G03*
X1144700Y501800I-400J0D01*
G01*
X1134700D02*
G03*
X1134700Y501800I-400J0D01*
G01*
M02*
