G04*
G04 #@! TF.GenerationSoftware,Altium Limited,CircuitMaker,2.2.1 (2.2.1.6)*
G04*
G04 Layer_Color=128*
%FSLAX25Y25*%
%MOIN*%
G70*
G04*
G04 #@! TF.SameCoordinates,623927E7-3B73-4545-9663-4BBB84DB28C7*
G04*
G04*
G04 #@! TF.FilePolarity,Positive*
G04*
G01*
G75*
%ADD108C,0.00200*%
D108*
X1181741Y311739D02*
X1185284D01*
X1183513Y309967D02*
Y313510D01*
X1181741Y329061D02*
X1185284D01*
X1183513Y327290D02*
Y330833D01*
X622750Y275000D02*
X637650D01*
X630200Y267550D02*
Y282450D01*
X958031Y426400D02*
X961969D01*
X960000Y424431D02*
Y428368D01*
X968032Y426400D02*
X971968D01*
X970000Y424431D02*
Y428368D01*
X920632Y426100D02*
X924568D01*
X922600Y424131D02*
Y428068D01*
X930632Y426100D02*
X934569D01*
X932600Y424131D02*
Y428068D01*
X845578Y426700D02*
X849515D01*
X847546Y424731D02*
Y428668D01*
X855578Y426700D02*
X859515D01*
X857546Y424731D02*
Y428668D01*
X883832Y426700D02*
X887768D01*
X885800Y424731D02*
Y428668D01*
X893832Y426700D02*
X897768D01*
X895800Y424731D02*
Y428668D01*
X800687Y511000D02*
X804821D01*
X802754Y508933D02*
Y513067D01*
X810687Y511000D02*
X814820D01*
X812754Y508933D02*
Y513067D01*
X820687Y511000D02*
X824821D01*
X822754Y508933D02*
Y513067D01*
X830687Y511000D02*
X834820D01*
X832754Y508933D02*
Y513067D01*
X840687Y511000D02*
X844820D01*
X842754Y508933D02*
Y513067D01*
X850687Y511000D02*
X854821D01*
X852754Y508933D02*
Y513067D01*
X950687Y511000D02*
X954821D01*
X952754Y508933D02*
Y513067D01*
X880687Y511000D02*
X884820D01*
X882754Y508933D02*
Y513067D01*
X870687Y511000D02*
X874821D01*
X872754Y508933D02*
Y513067D01*
X860687Y511000D02*
X864820D01*
X862754Y508933D02*
Y513067D01*
X940687Y511000D02*
X944820D01*
X942754Y508933D02*
Y513067D01*
X930687Y511000D02*
X934820D01*
X932754Y508933D02*
Y513067D01*
X920687Y511000D02*
X924821D01*
X922754Y508933D02*
Y513067D01*
X910687Y511000D02*
X914820D01*
X912754Y508933D02*
Y513067D01*
X900687Y511000D02*
X904821D01*
X902754Y508933D02*
Y513067D01*
X960687Y511000D02*
X964820D01*
X962754Y508933D02*
Y513067D01*
X970687Y511000D02*
X974821D01*
X972754Y508933D02*
Y513067D01*
X980687Y511000D02*
X984820D01*
X982754Y508933D02*
Y513067D01*
X990687Y511000D02*
X994820D01*
X992754Y508933D02*
Y513067D01*
X1000687Y511000D02*
X1004821D01*
X1002754Y508933D02*
Y513067D01*
X1010687Y511000D02*
X1014820D01*
X1012754Y508933D02*
Y513067D01*
X890687Y511000D02*
X894820D01*
X892754Y508933D02*
Y513067D01*
X800633Y545300D02*
X804767D01*
X802700Y543233D02*
Y547367D01*
X810633Y545300D02*
X814767D01*
X812700Y543233D02*
Y547367D01*
X820633Y545300D02*
X824767D01*
X822700Y543233D02*
Y547367D01*
X830633Y545300D02*
X834767D01*
X832700Y543233D02*
Y547367D01*
X840633Y545300D02*
X844767D01*
X842700Y543233D02*
Y547367D01*
X850633Y545300D02*
X854767D01*
X852700Y543233D02*
Y547367D01*
X950633Y545300D02*
X954767D01*
X952700Y543233D02*
Y547367D01*
X890633Y545300D02*
X894767D01*
X892700Y543233D02*
Y547367D01*
X880633Y545300D02*
X884767D01*
X882700Y543233D02*
Y547367D01*
X870633Y545300D02*
X874767D01*
X872700Y543233D02*
Y547367D01*
X860633Y545300D02*
X864767D01*
X862700Y543233D02*
Y547367D01*
X940633Y545300D02*
X944767D01*
X942700Y543233D02*
Y547367D01*
X930633Y545300D02*
X934767D01*
X932700Y543233D02*
Y547367D01*
X920633Y545300D02*
X924767D01*
X922700Y543233D02*
Y547367D01*
X910633Y545300D02*
X914767D01*
X912700Y543233D02*
Y547367D01*
X900633Y545300D02*
X904767D01*
X902700Y543233D02*
Y547367D01*
X960633Y545300D02*
X964767D01*
X962700Y543233D02*
Y547367D01*
X970633Y545300D02*
X974767D01*
X972700Y543233D02*
Y547367D01*
X980633Y545300D02*
X984767D01*
X982700Y543233D02*
Y547367D01*
X990633Y545300D02*
X994767D01*
X992700Y543233D02*
Y547367D01*
X1000633Y545300D02*
X1004767D01*
X1002700Y543233D02*
Y547367D01*
X1010633Y545300D02*
X1014767D01*
X1012700Y543233D02*
Y547367D01*
X773913Y555260D02*
X778637D01*
X776275Y552898D02*
Y557622D01*
X783913Y555260D02*
X788637D01*
X786275Y552898D02*
Y557622D01*
X783863Y564240D02*
X788587D01*
X786225Y561878D02*
Y566602D01*
X773863Y564240D02*
X778587D01*
X776225Y561878D02*
Y566602D01*
X951413Y577260D02*
X956137D01*
X953775Y574898D02*
Y579622D01*
X961413Y577260D02*
X966137D01*
X963775Y574898D02*
Y579622D01*
X961363Y568240D02*
X966087D01*
X963725Y565878D02*
Y570602D01*
X951363Y568240D02*
X956087D01*
X953725Y565878D02*
Y570602D01*
X916893Y396643D02*
X921193D01*
X919043Y394493D02*
Y398793D01*
X897207Y396643D02*
X901507D01*
X899357Y394493D02*
Y398793D01*
X928950Y368100D02*
X937450D01*
X933200Y363850D02*
Y372350D01*
X880950Y368100D02*
X889450D01*
X885200Y363850D02*
Y372350D01*
X897207Y339557D02*
X901507D01*
X899357Y337407D02*
Y341707D01*
X907050Y339557D02*
X911350D01*
X909200Y337407D02*
Y341707D01*
X916893Y339557D02*
X921193D01*
X919043Y337407D02*
Y341707D01*
X686251Y460229D02*
X689007D01*
X687629Y458851D02*
Y461607D01*
X696252Y440229D02*
X699008D01*
X697630Y438851D02*
Y441607D01*
X706251Y460229D02*
X709007D01*
X707629Y458851D02*
Y461607D01*
X624238Y425252D02*
X628175D01*
X626206Y423283D02*
Y427220D01*
X624238Y435252D02*
X628175D01*
X626206Y433284D02*
Y437220D01*
X614238Y435252D02*
X618175D01*
X616206Y433284D02*
Y437220D01*
X614238Y425252D02*
X618175D01*
X616206Y423283D02*
Y427220D01*
X634238Y435252D02*
X638175D01*
X636206Y433284D02*
Y437220D01*
X634238Y425252D02*
X638175D01*
X636206Y423283D02*
Y427220D01*
X1161250Y275000D02*
X1176150D01*
X1168700Y267550D02*
Y282450D01*
X616663Y470500D02*
X619663D01*
X618163Y469000D02*
Y472000D01*
X624537Y470500D02*
X627537D01*
X626037Y469000D02*
Y472000D01*
X1010111Y313700D02*
X1013111D01*
X1011611Y312200D02*
Y315200D01*
X1002237Y313700D02*
X1005237D01*
X1003737Y312200D02*
Y315200D01*
X1161250Y575100D02*
X1176150D01*
X1168700Y567650D02*
Y582550D01*
X622750Y575100D02*
X637650D01*
X630200Y567650D02*
Y582550D01*
X755733Y513400D02*
X759867D01*
X757800Y511333D02*
Y515467D01*
X755733Y523400D02*
X759867D01*
X757800Y521333D02*
Y525467D01*
X755733Y533400D02*
X759867D01*
X757800Y531333D02*
Y535467D01*
X755733Y543400D02*
X759867D01*
X757800Y541333D02*
Y545467D01*
X1132550Y491800D02*
X1136050D01*
X1134300Y490050D02*
Y493550D01*
X1142550Y491800D02*
X1146050D01*
X1144300Y490050D02*
Y493550D01*
X1152550Y491800D02*
X1156050D01*
X1154300Y490050D02*
Y493550D01*
X1162550Y491800D02*
X1166050D01*
X1164300Y490050D02*
Y493550D01*
X1162550Y501800D02*
X1166050D01*
X1164300Y500050D02*
Y503550D01*
X1152550Y501800D02*
X1156050D01*
X1154300Y500050D02*
Y503550D01*
X1142550Y501800D02*
X1146050D01*
X1144300Y500050D02*
Y503550D01*
X1132550Y501800D02*
X1136050D01*
X1134300Y500050D02*
Y503550D01*
X1191923Y368743D02*
X1195860D01*
X1193891Y366774D02*
Y370711D01*
X1191923Y358900D02*
X1195860D01*
X1193891Y356931D02*
Y360869D01*
X1191923Y349057D02*
X1195860D01*
X1193891Y347089D02*
Y351026D01*
X1168301Y368743D02*
X1172238D01*
X1170269Y366774D02*
Y370711D01*
X1168301Y358900D02*
X1172238D01*
X1170269Y356931D02*
Y360869D01*
X1168301Y349057D02*
X1172238D01*
X1170269Y347089D02*
Y351026D01*
X686022Y503800D02*
X688777D01*
X687399Y502422D02*
Y505178D01*
X696022Y483800D02*
X698778D01*
X697400Y482422D02*
Y485178D01*
X706021Y503800D02*
X708777D01*
X707399Y502422D02*
Y505178D01*
X1049979Y451394D02*
X1059821D01*
X1054900Y446473D02*
Y456315D01*
X1049979Y575394D02*
X1059821D01*
X1054900Y570472D02*
Y580315D01*
X752979Y451394D02*
X762821D01*
X757900Y446473D02*
Y456315D01*
X752979Y575394D02*
X762821D01*
X757900Y570472D02*
Y580315D01*
X927900Y577394D02*
X930900D01*
X929400Y575894D02*
Y578894D01*
X917900Y577394D02*
X920900D01*
X919400Y575894D02*
Y578894D01*
X907900Y577394D02*
X910900D01*
X909400Y575894D02*
Y578894D01*
X897900Y577394D02*
X900900D01*
X899400Y575894D02*
Y578894D01*
X887900Y577394D02*
X890900D01*
X889400Y575894D02*
Y578894D01*
X877900Y577394D02*
X880900D01*
X879400Y575894D02*
Y578894D01*
X867900Y577394D02*
X870900D01*
X869400Y575894D02*
Y578894D01*
X857900Y577394D02*
X860900D01*
X859400Y575894D02*
Y578894D01*
X847900Y577394D02*
X850900D01*
X849400Y575894D02*
Y578894D01*
X837900Y577394D02*
X840900D01*
X839400Y575894D02*
Y578894D01*
X827900Y577394D02*
X830900D01*
X829400Y575894D02*
Y578894D01*
X817900Y577394D02*
X820900D01*
X819400Y575894D02*
Y578894D01*
X807900Y577394D02*
X810900D01*
X809400Y575894D02*
Y578894D01*
X797900Y577394D02*
X800900D01*
X799400Y575894D02*
Y578894D01*
X787900Y577394D02*
X790900D01*
X789400Y575894D02*
Y578894D01*
X777900Y577394D02*
X780900D01*
X779400Y575894D02*
Y578894D01*
X992400Y299800D02*
X993600D01*
X993000Y299200D02*
Y300400D01*
X1050100Y304600D02*
X1051300D01*
X1050700Y304000D02*
Y305200D01*
X1165400Y320400D02*
X1166600D01*
X1166000Y319800D02*
Y321000D01*
X1161000Y317400D02*
X1162200D01*
X1161600Y316800D02*
Y318000D01*
X797400Y306500D02*
X798600D01*
X798000Y305900D02*
Y307100D01*
X846900Y383500D02*
X848100D01*
X847500Y382900D02*
Y384100D01*
X854400Y390000D02*
X855600D01*
X855000Y389400D02*
Y390600D01*
X916400Y499000D02*
X917600D01*
X917000Y498400D02*
Y499600D01*
X907400Y499000D02*
X908600D01*
X908000Y498400D02*
Y499600D01*
X896900Y499000D02*
X898100D01*
X897500Y498400D02*
Y499600D01*
X865400Y400500D02*
X866600D01*
X866000Y399900D02*
Y401100D01*
X772400Y452500D02*
X773600D01*
X773000Y451900D02*
Y453100D01*
X768400Y396500D02*
X769600D01*
X769000Y395900D02*
Y397100D01*
X782348Y408130D02*
X783548D01*
X782948Y407530D02*
Y408730D01*
X795400Y269000D02*
X796600D01*
X796000Y268400D02*
Y269600D01*
X788400Y269000D02*
X789600D01*
X789000Y268400D02*
Y269600D01*
X781400Y269000D02*
X782600D01*
X782000Y268400D02*
Y269600D01*
X834400Y271000D02*
X835600D01*
X835000Y270400D02*
Y271600D01*
X834400Y278000D02*
X835600D01*
X835000Y277400D02*
Y278600D01*
X890900Y288000D02*
X892100D01*
X891500Y287400D02*
Y288600D01*
X897900Y288000D02*
X899100D01*
X898500Y287400D02*
Y288600D01*
X875900Y269500D02*
X877100D01*
X876500Y268900D02*
Y270100D01*
X904400Y268500D02*
X905600D01*
X905000Y267900D02*
Y269100D01*
X818400Y312500D02*
X819600D01*
X819000Y311900D02*
Y313100D01*
X808900Y304500D02*
X810100D01*
X809500Y303900D02*
Y305100D01*
X818400Y301500D02*
X819600D01*
X819000Y300900D02*
Y302100D01*
X824900Y288500D02*
X826100D01*
X825500Y287900D02*
Y289100D01*
X878900Y282500D02*
X880100D01*
X879500Y281900D02*
Y283100D01*
X879400Y290000D02*
X880600D01*
X880000Y289400D02*
Y290600D01*
X740400Y328250D02*
X741600D01*
X741000Y327650D02*
Y328850D01*
X736807Y332275D02*
X738007D01*
X737407Y331675D02*
Y332874D01*
X999400Y264000D02*
X1000600D01*
X1000000Y263400D02*
Y264600D01*
X662400Y575000D02*
X663600D01*
X663000Y574400D02*
Y575600D01*
X1194400Y415000D02*
X1195600D01*
X1195000Y414400D02*
Y415600D01*
X1194400Y404000D02*
X1195600D01*
X1195000Y403400D02*
Y404600D01*
X1194400Y393000D02*
X1195600D01*
X1195000Y392400D02*
Y393600D01*
X1084400Y417000D02*
X1085600D01*
X1085000Y416400D02*
Y417600D01*
X1084400Y406000D02*
X1085600D01*
X1085000Y405400D02*
Y406600D01*
X1084400Y395000D02*
X1085600D01*
X1085000Y394400D02*
Y395600D01*
X1084400Y428000D02*
X1085600D01*
X1085000Y427400D02*
Y428600D01*
X1084400Y439000D02*
X1085600D01*
X1085000Y438400D02*
Y439600D01*
X1084400Y450000D02*
X1085600D01*
X1085000Y449400D02*
Y450600D01*
X1084400Y461000D02*
X1085600D01*
X1085000Y460400D02*
Y461600D01*
X1084400Y472000D02*
X1085600D01*
X1085000Y471400D02*
Y472600D01*
X1194400Y426000D02*
X1195600D01*
X1195000Y425400D02*
Y426600D01*
X1194400Y437000D02*
X1195600D01*
X1195000Y436400D02*
Y437600D01*
X1194400Y448000D02*
X1195600D01*
X1195000Y447400D02*
Y448600D01*
X1194400Y459000D02*
X1195600D01*
X1195000Y458400D02*
Y459600D01*
X1194400Y470000D02*
X1195600D01*
X1195000Y469400D02*
Y470600D01*
X1194400Y481000D02*
X1195600D01*
X1195000Y480400D02*
Y481600D01*
X1194400Y492000D02*
X1195600D01*
X1195000Y491400D02*
Y492600D01*
X1194400Y503000D02*
X1195600D01*
X1195000Y502400D02*
Y503600D01*
X1194400Y514000D02*
X1195600D01*
X1195000Y513400D02*
Y514600D01*
X1043400Y264000D02*
X1044600D01*
X1044000Y263400D02*
Y264600D01*
X1032400Y264000D02*
X1033600D01*
X1033000Y263400D02*
Y264600D01*
X1054400Y264000D02*
X1055600D01*
X1055000Y263400D02*
Y264600D01*
X1065400Y264000D02*
X1066600D01*
X1066000Y263400D02*
Y264600D01*
X1076400Y264000D02*
X1077600D01*
X1077000Y263400D02*
Y264600D01*
X1087400Y264000D02*
X1088600D01*
X1088000Y263400D02*
Y264600D01*
X1098400Y264000D02*
X1099600D01*
X1099000Y263400D02*
Y264600D01*
X1109400Y264000D02*
X1110600D01*
X1110000Y263400D02*
Y264600D01*
X1120400Y264000D02*
X1121600D01*
X1121000Y263400D02*
Y264600D01*
X1131400Y264000D02*
X1132600D01*
X1132000Y263400D02*
Y264600D01*
X1142400Y264000D02*
X1143600D01*
X1143000Y263400D02*
Y264600D01*
X988400Y264000D02*
X989600D01*
X989000Y263400D02*
Y264600D01*
X1010400Y264000D02*
X1011600D01*
X1011000Y263400D02*
Y264600D01*
X1021400Y264000D02*
X1022600D01*
X1022000Y263400D02*
Y264600D01*
X1138400Y525000D02*
X1139600D01*
X1139000Y524400D02*
Y525600D01*
X1154400Y525000D02*
X1155600D01*
X1155000Y524400D02*
Y525600D01*
X1138400Y537000D02*
X1139600D01*
X1139000Y536400D02*
Y537600D01*
X1154400Y537000D02*
X1155600D01*
X1155000Y536400D02*
Y537600D01*
X990900Y386000D02*
X992100D01*
X991500Y385400D02*
Y386600D01*
X1000900Y386000D02*
X1002100D01*
X1001500Y385400D02*
Y386600D01*
X1010900Y386000D02*
X1012100D01*
X1011500Y385400D02*
Y386600D01*
X1010900Y396000D02*
X1012100D01*
X1011500Y395400D02*
Y396600D01*
X1000900Y396000D02*
X1002100D01*
X1001500Y395400D02*
Y396600D01*
X990900Y396000D02*
X992100D01*
X991500Y395400D02*
Y396600D01*
X662400Y567000D02*
X663600D01*
X663000Y566400D02*
Y567600D01*
X652400Y575000D02*
X653600D01*
X653000Y574400D02*
Y575600D01*
X652400Y567000D02*
X653600D01*
X653000Y566400D02*
Y567600D01*
X819400Y438000D02*
X820600D01*
X820000Y437400D02*
Y438600D01*
X808400Y438000D02*
X809600D01*
X809000Y437400D02*
Y438600D01*
X1164400Y435000D02*
X1165600D01*
X1165000Y434400D02*
Y435600D01*
X1148400Y435000D02*
X1149600D01*
X1149000Y434400D02*
Y435600D01*
X1165400Y399000D02*
X1166600D01*
X1166000Y398400D02*
Y399600D01*
X1086400Y341000D02*
X1087600D01*
X1087000Y340400D02*
Y341600D01*
X1086400Y351000D02*
X1087600D01*
X1087000Y350400D02*
Y351600D01*
X1135400Y340000D02*
X1136600D01*
X1136000Y339400D02*
Y340600D01*
X1102400Y340000D02*
X1103600D01*
X1103000Y339400D02*
Y340600D01*
X1119400Y340000D02*
X1120600D01*
X1120000Y339400D02*
Y340600D01*
X1033400Y296000D02*
X1034600D01*
X1034000Y295400D02*
Y296600D01*
X1076400Y317000D02*
X1077600D01*
X1077000Y316400D02*
Y317600D01*
X927400Y295000D02*
X928600D01*
X928000Y294400D02*
Y295600D01*
X920400Y295000D02*
X921600D01*
X921000Y294400D02*
Y295600D01*
X927400Y301000D02*
X928600D01*
X928000Y300400D02*
Y301600D01*
X920400Y301000D02*
X921600D01*
X921000Y300400D02*
Y301600D01*
X992400Y307000D02*
X993600D01*
X993000Y306400D02*
Y307600D01*
X981400Y307000D02*
X982600D01*
X982000Y306400D02*
Y307600D01*
X1000400Y284000D02*
X1001600D01*
X1001000Y283400D02*
Y284600D01*
X763400Y379000D02*
X764600D01*
X764000Y378400D02*
Y379600D01*
X751400Y379000D02*
X752600D01*
X752000Y378400D02*
Y379600D01*
X775400Y379000D02*
X776600D01*
X776000Y378400D02*
Y379600D01*
X704400Y347000D02*
X705600D01*
X705000Y346400D02*
Y347600D01*
X712400Y339000D02*
X713600D01*
X713000Y338400D02*
Y339600D01*
X712400Y347000D02*
X713600D01*
X713000Y346400D02*
Y347600D01*
X712400Y355000D02*
X713600D01*
X713000Y354400D02*
Y355600D01*
X743400Y436000D02*
X744600D01*
X744000Y435400D02*
Y436600D01*
X726900Y398000D02*
X728100D01*
X727500Y397400D02*
Y398600D01*
X737400Y338000D02*
X738600D01*
X738000Y337400D02*
Y338600D01*
X843900Y394500D02*
X845100D01*
X844500Y393900D02*
Y395100D01*
X756400Y305500D02*
X757600D01*
X757000Y304900D02*
Y306100D01*
X647400Y379000D02*
X648600D01*
X648000Y378400D02*
Y379600D01*
X714900Y384000D02*
X716100D01*
X715500Y383400D02*
Y384600D01*
X714900Y370500D02*
X716100D01*
X715500Y369900D02*
Y371100D01*
X719400Y376500D02*
X720600D01*
X720000Y375900D02*
Y377100D01*
X703400Y386000D02*
X704600D01*
X704000Y385400D02*
Y386600D01*
X698900Y373000D02*
X700100D01*
X699500Y372400D02*
Y373600D01*
X709900Y390000D02*
X711100D01*
X710500Y389400D02*
Y390600D01*
X747900Y265500D02*
X749100D01*
X748500Y264900D02*
Y266100D01*
X731900Y320000D02*
X733100D01*
X732500Y319400D02*
Y320600D01*
X736900Y311500D02*
X738100D01*
X737500Y310900D02*
Y312100D01*
X735400Y263500D02*
X736600D01*
X736000Y262900D02*
Y264100D01*
X705400Y309000D02*
X706600D01*
X706000Y308400D02*
Y309600D01*
X705400Y318500D02*
X706600D01*
X706000Y317900D02*
Y319100D01*
X726400Y306000D02*
X727600D01*
X727000Y305400D02*
Y306600D01*
X714918Y420518D02*
X716118D01*
X715518Y419918D02*
Y421118D01*
X661900Y425500D02*
X663100D01*
X662500Y424900D02*
Y426100D01*
X707400Y406500D02*
X708600D01*
X708000Y405900D02*
Y407100D01*
X622400Y382000D02*
X623600D01*
X623000Y381400D02*
Y382600D01*
X640400Y387500D02*
X641600D01*
X641000Y386900D02*
Y388100D01*
X699115Y295701D02*
X700315D01*
X699715Y295101D02*
Y296301D01*
X641400Y296500D02*
X642600D01*
X642000Y295900D02*
Y297100D01*
X664400Y399500D02*
X665600D01*
X665000Y398900D02*
Y400100D01*
X727400Y376500D02*
X728600D01*
X728000Y375900D02*
Y377100D01*
X669900Y417000D02*
X671100D01*
X670500Y416400D02*
Y417600D01*
X712400Y519000D02*
X713600D01*
X713000Y518400D02*
Y519600D01*
X712900Y289500D02*
X714100D01*
X713500Y288900D02*
Y290100D01*
X777179Y464588D02*
X778379D01*
X777779Y463988D02*
Y465188D01*
X799900Y345000D02*
X801100D01*
X800500Y344400D02*
Y345600D01*
X780400Y355500D02*
X781600D01*
X781000Y354900D02*
Y356100D01*
X773400Y316000D02*
X774600D01*
X774000Y315400D02*
Y316600D01*
X712900Y303500D02*
X714100D01*
X713500Y302900D02*
Y304100D01*
X857900Y368000D02*
X859100D01*
X858500Y367400D02*
Y368600D01*
X798900Y471000D02*
X800100D01*
X799500Y470400D02*
Y471600D01*
X661900Y349000D02*
X663100D01*
X662500Y348400D02*
Y349600D01*
X849900Y342500D02*
X851100D01*
X850500Y341900D02*
Y343100D01*
X826400Y374500D02*
X827600D01*
X827000Y373900D02*
Y375100D01*
X784900Y424000D02*
X786100D01*
X785500Y423400D02*
Y424600D01*
X836400Y389000D02*
X837600D01*
X837000Y388400D02*
Y389600D01*
X824400Y428000D02*
X825600D01*
X825000Y427400D02*
Y428600D01*
X685900Y335500D02*
X687100D01*
X686500Y334900D02*
Y336100D01*
X671400Y363000D02*
X672600D01*
X672000Y362400D02*
Y363600D01*
X614900Y315000D02*
X616100D01*
X615500Y314400D02*
Y315600D01*
X682900Y328500D02*
X684100D01*
X683500Y327900D02*
Y329100D01*
X665400Y332000D02*
X666600D01*
X666000Y331400D02*
Y332600D01*
X650400Y288000D02*
X651600D01*
X651000Y287400D02*
Y288600D01*
X667400Y317500D02*
X668600D01*
X668000Y316900D02*
Y318100D01*
X691400Y323500D02*
X692600D01*
X692000Y322900D02*
Y324100D01*
X661400Y292500D02*
X662600D01*
X662000Y291900D02*
Y293100D01*
X742400Y486500D02*
X743600D01*
X743000Y485900D02*
Y487100D01*
X737400Y376500D02*
X738600D01*
X738000Y375900D02*
Y377100D01*
X676900Y373500D02*
X678100D01*
X677500Y372900D02*
Y374100D01*
X1066900Y527000D02*
X1068100D01*
X1067500Y526400D02*
Y527600D01*
X731400Y547000D02*
X732600D01*
X732000Y546400D02*
Y547600D01*
X624400Y482000D02*
X625600D01*
X625000Y481400D02*
Y482600D01*
X626900Y544500D02*
X628100D01*
X627500Y543900D02*
Y545100D01*
X966900Y287000D02*
X968100D01*
X967500Y286400D02*
Y287600D01*
M02*
