M48
;Layer_Color=6321
;FILE_FORMAT=2:5
INCH,LZ
;TYPE=PLATED
T1F00S00C0.01200
T2F00S00C0.02756
T3F00S00C0.03000
T4F00S00C0.03500
T5F00S00C0.03937
T6F00S00C0.04134
T7F00S00C0.04300
T8F00S00C0.04724
T9F00S00C0.08500
T10F00S00C0.09843
;TYPE=NON_PLATED
T11F00S00C0.03543
T12F00S00C0.14900
%
T01
X1099Y0264
X111
X1121
X1132
X1143
X1088
X1077
X1066
X1055
X1044
X1033
X1022
X1011
X1
X0989
X1001Y0284
X0993Y02998
Y0307
X0982
X09675Y0287
X1034Y0296
X10507Y03046
X0928Y0301
Y0295
X0921
Y0301
X08985Y0288
X08915
X088Y029
X08795Y02825
X08765Y02695
X0905Y02685
X0835Y0271
Y0278
X08255Y02885
X0819Y03015
X08095Y03045
X0798Y03065
X0796Y0269
X0789
X0782
X07485Y02655
X0736Y02635
X07135Y02895
Y03035
X0706Y0309
X0699715Y0295701
X0727Y0306
X07375Y03115
X0757Y03055
X0662Y02925
X0651Y0288
X0642Y02965
X06155Y0315
X0623Y0382
X0641Y03875
X0648Y0379
X06775Y03735
X0672Y0363
X06625Y0349
X0666Y0332
X0668Y03175
X06835Y03285
X06865Y03355
X0692Y03235
X0706Y03185
X0713Y0339
Y0347
X0705
X0713Y0355
X07155Y03705
X072Y03765
X0728
X0738
X0752Y0379
X0764
X0776
X0769Y03965
X07275Y0398
X07105Y039
X0704Y0386
X07155Y0384
X06995Y0373
X0708Y04065
X0715518Y0420518
X0744Y0436
X0773Y04525
X0777779Y0464588
X0781Y03555
X0774Y0316
X0741Y032825
X0737407Y0332275
X0738Y0338
X07325Y032
X0665Y03995
X06705Y0417
X06625Y04255
X07855Y0424
X0782948Y040813
X0809Y0438
X082
X0825Y0428
X0837Y0389
X08445Y03945
X08475Y03835
X0855Y039
X0866Y04005
X08585Y0368
X08505Y03425
X08005Y0345
X0819Y03125
X0827Y03745
X09915Y0386
X10015
X10115
Y0396
X10015
X09915
X1085Y0395
Y0406
Y0417
Y0428
X1087Y0351
Y0341
X1077Y0317
X1103Y034
X112
X1136
X11616Y03174
X1166Y03204
Y0399
X1195Y0404
Y0415
Y0426
Y0437
Y0448
Y0459
X1165Y0435
X1149
X1195Y0393
Y047
Y0481
Y0492
Y0503
Y0514
X1155Y0525
Y0537
X1139
Y0525
X10675Y0527
X0917Y0499
X0908
X08975
X07995Y0471
X0743Y04865
X0713Y0519
X0732Y0547
X0663Y0567
Y0575
X0653
Y0567
X06275Y05445
X0625Y0482
T02
X069763Y0440229
X0707629Y0460229
X0687629
X06974Y04838
X0707399Y05038
X0687399
T03
X1003737Y03137
X1011611
X09294Y0577394
X09194
X09094
X08994
X08894
X08794
X08694
X08594
X08494
X08394
X08294
X08194
X08094
X07994
X07894
X07794
X0626037Y04705
X0618163
T04
X11343Y04918
X11443
X11543
X11643
Y05018
X11543
X11443
X11343
T05
X0616206Y0425252
Y0435252
X0626206
X0636206
X0636206Y0425252
X0626206
X0847546Y04267
X0857546
X08858
X08958
X09226Y04261
X09326
X096Y04264
X097
X1170269Y0368743
Y03589
Y0349057
X1193891
Y03589
Y0368743
T06
X0942754Y0511
X0952754
X0962754
X0972754
X0982754
X0992754
X1002754
X1012754
X10127Y05453
X10027
X09927
X09827
X09727
X09627
X09527
X09427
X09327
X09227
X09127
X09027
X08927
X08827
X08727
X08627
X08527
X08427
X08327
X08227
X08127
X08027
X0802754Y0511
X0812754
X0822754
X0832754
X0842754
X0852754
X0862754
X0872754
X0882754
X0892754
X0902754
X0912754
X0922754
X0932754
X07578Y05134
Y05234
Y05334
Y05434
T07
X0899357Y0339557
X09092
X0919043
Y0396643
X0899357
T08
X0953725Y056824
X0953775Y057726
X0963775
X0963725Y056824
X0786225Y056424
X0786275Y055526
X0776275
X0776225Y056424
T09
X08852Y03681
X09332
T10
X07579Y0451394
X10549
Y0575394
X07579
T11
X1183513Y0311739
Y0329061
T12
X11687Y0275
X06302
X11687Y05751
X06302
M30
